<?xml version="1.0" encoding="UTF-8" standalone="no"?>
<!DOCTYPE svg PUBLIC "-//W3C//DTD SVG 1.1//EN"
 "http://www.w3.org/Graphics/SVG/1.1/DTD/svg11.dtd">
<!-- Generated by graphviz version 2.43.0 (0)
 -->
<!-- Title: /home/runner/work/cbmc/cbmc/src/solvers/tvpi/complete.h Pages: 1 -->
<svg width="725pt" height="654pt"
 viewBox="0.00 0.00 725.00 654.00" xmlns="http://www.w3.org/2000/svg" xmlns:xlink="http://www.w3.org/1999/xlink">
<g id="graph0" class="graph" transform="scale(1 1) rotate(0) translate(4 650)">
<title>/home/runner/work/cbmc/cbmc/src/solvers/tvpi/complete.h</title>
<!-- Node1 -->
<g id="Node000001" class="node">
<title>Node1</title>
<g id="a_Node000001"><a xlink:title=" ">
<polygon fill="#999999" stroke="#666666" points="420.5,-646 282.5,-646 282.5,-605 420.5,-605 420.5,-646"/>
<text text-anchor="start" x="290.5" y="-634" font-family="Helvetica,sans-Serif" font-size="10.00">/home/runner/work/cbmc</text>
<text text-anchor="start" x="290.5" y="-623" font-family="Helvetica,sans-Serif" font-size="10.00">/cbmc/src/solvers/tvpi</text>
<text text-anchor="middle" x="351.5" y="-612" font-family="Helvetica,sans-Serif" font-size="10.00">/complete.h</text>
</a>
</g>
</g>
<!-- Node2 -->
<g id="Node000002" class="node">
<title>Node2</title>
<g id="a_Node000002"><a xlink:title=" ">
<polygon fill="#e0e0e0" stroke="#999999" points="257,-349 210,-349 210,-330 257,-330 257,-349"/>
<text text-anchor="middle" x="233.5" y="-337" font-family="Helvetica,sans-Serif" font-size="10.00">vector</text>
</a>
</g>
</g>
<!-- Node1&#45;&gt;Node2 -->
<g id="edge1_Node000001_Node000002" class="edge">
<title>Node1&#45;&gt;Node2</title>
<g id="a_edge1_Node000001_Node000002"><a xlink:title=" ">
<path fill="none" stroke="#63b8ff" d="M307.78,-604.86C271.73,-585.33 226.5,-551.64 226.5,-505.5 226.5,-505.5 226.5,-505.5 226.5,-448.5 226.5,-417.12 229.48,-380.73 231.55,-359.21"/>
<polygon fill="#63b8ff" stroke="#63b8ff" points="235.04,-359.47 232.56,-349.17 228.08,-358.77 235.04,-359.47"/>
</a>
</g>
</g>
<!-- Node3 -->
<g id="Node000003" class="node">
<title>Node3</title>
<g id="a_Node000003"><a xlink:title=" ">
<polygon fill="#e0e0e0" stroke="#999999" points="225.5,-294 165.5,-294 165.5,-275 225.5,-275 225.5,-294"/>
<text text-anchor="middle" x="195.5" y="-282" font-family="Helvetica,sans-Serif" font-size="10.00">iostream</text>
</a>
</g>
</g>
<!-- Node1&#45;&gt;Node3 -->
<g id="edge2_Node000001_Node000003" class="edge">
<title>Node1&#45;&gt;Node3</title>
<g id="a_edge2_Node000001_Node000003"><a xlink:title=" ">
<path fill="none" stroke="#63b8ff" d="M282.35,-605.89C235.29,-588.55 181.5,-557.38 181.5,-505.5 181.5,-505.5 181.5,-505.5 181.5,-393.5 181.5,-361.93 187.46,-325.59 191.6,-304.14"/>
<polygon fill="#63b8ff" stroke="#63b8ff" points="195.07,-304.62 193.61,-294.13 188.21,-303.24 195.07,-304.62"/>
</a>
</g>
</g>
<!-- Node4 -->
<g id="Node000004" class="node">
<title>Node4</title>
<g id="a_Node000004"><a xlink:href="inequality_8h.html" target="_top" xlink:title=" ">
<polygon fill="white" stroke="#666666" points="491,-404 418,-404 418,-385 491,-385 491,-404"/>
<text text-anchor="middle" x="454.5" y="-392" font-family="Helvetica,sans-Serif" font-size="10.00">inequality.h</text>
</a>
</g>
</g>
<!-- Node1&#45;&gt;Node4 -->
<g id="edge3_Node000001_Node000004" class="edge">
<title>Node1&#45;&gt;Node4</title>
<g id="a_edge3_Node000001_Node000004"><a xlink:title=" ">
<path fill="none" stroke="#63b8ff" d="M351.1,-604.7C351.28,-578.46 354.16,-531.25 370.5,-495 385.94,-460.73 416.75,-429.01 436.46,-410.98"/>
<polygon fill="#63b8ff" stroke="#63b8ff" points="439.01,-413.39 444.15,-404.12 434.36,-408.17 439.01,-413.39"/>
</a>
</g>
</g>
<!-- Node51 -->
<g id="Node000051" class="node">
<title>Node51</title>
<g id="a_Node000051"><a xlink:href="constant__inequality_8h.html" target="_top" xlink:title=" ">
<polygon fill="white" stroke="#666666" points="499.5,-514 379.5,-514 379.5,-495 499.5,-495 499.5,-514"/>
<text text-anchor="middle" x="439.5" y="-502" font-family="Helvetica,sans-Serif" font-size="10.00">constant_inequality.h</text>
</a>
</g>
</g>
<!-- Node1&#45;&gt;Node51 -->
<g id="edge39_Node000001_Node000051" class="edge">
<title>Node1&#45;&gt;Node51</title>
<g id="a_edge39_Node000001_Node000051"><a xlink:title=" ">
<path fill="none" stroke="#63b8ff" d="M366.03,-604.85C383.03,-581.86 410.9,-544.18 426.98,-522.43"/>
<polygon fill="#63b8ff" stroke="#63b8ff" points="429.95,-524.3 433.08,-514.18 424.32,-520.13 429.95,-524.3"/>
</a>
</g>
</g>
<!-- Node52 -->
<g id="Node000052" class="node">
<title>Node52</title>
<g id="a_Node000052"><a xlink:href="inequality__factory_8h.html" target="_top" xlink:title=" ">
<polygon fill="white" stroke="#666666" points="567,-569 454,-569 454,-550 567,-550 567,-569"/>
<text text-anchor="middle" x="510.5" y="-557" font-family="Helvetica,sans-Serif" font-size="10.00">inequality_factory.h</text>
</a>
</g>
</g>
<!-- Node1&#45;&gt;Node52 -->
<g id="edge41_Node000001_Node000052" class="edge">
<title>Node1&#45;&gt;Node52</title>
<g id="a_edge41_Node000001_Node000052"><a xlink:title=" ">
<path fill="none" stroke="#63b8ff" d="M400.07,-604.95C426,-594.51 457.14,-581.98 479.73,-572.88"/>
<polygon fill="#63b8ff" stroke="#63b8ff" points="481.18,-576.07 489.15,-569.09 478.57,-569.58 481.18,-576.07"/>
</a>
</g>
</g>
<!-- Node53 -->
<g id="Node000053" class="node">
<title>Node53</title>
<g id="a_Node000053"><a xlink:href="unary__inequality_8h.html" target="_top" xlink:title=" ">
<polygon fill="white" stroke="#666666" points="661.5,-514 555.5,-514 555.5,-495 661.5,-495 661.5,-514"/>
<text text-anchor="middle" x="608.5" y="-502" font-family="Helvetica,sans-Serif" font-size="10.00">unary_inequality.h</text>
</a>
</g>
</g>
<!-- Node1&#45;&gt;Node53 -->
<g id="edge50_Node000001_Node000053" class="edge">
<title>Node1&#45;&gt;Node53</title>
<g id="a_edge50_Node000001_Node000053"><a xlink:title=" ">
<path fill="none" stroke="#63b8ff" d="M420.58,-622.32C468.84,-617.51 532.3,-604.23 576.5,-569 590.65,-557.72 599.09,-538.53 603.72,-524.19"/>
<polygon fill="#63b8ff" stroke="#63b8ff" points="607.14,-524.96 606.55,-514.38 600.41,-523.02 607.14,-524.96"/>
</a>
</g>
</g>
<!-- Node56 -->
<g id="Node000056" class="node">
<title>Node56</title>
<g id="a_Node000056"><a xlink:href="planar__comparator_8h.html" target="_top" xlink:title=" ">
<polygon fill="white" stroke="#666666" points="372,-459 255,-459 255,-440 372,-440 372,-459"/>
<text text-anchor="middle" x="313.5" y="-447" font-family="Helvetica,sans-Serif" font-size="10.00">planar_comparator.h</text>
</a>
</g>
</g>
<!-- Node1&#45;&gt;Node56 -->
<g id="edge51_Node000001_Node000056" class="edge">
<title>Node1&#45;&gt;Node56</title>
<g id="a_edge51_Node000001_Node000056"><a xlink:title=" ">
<path fill="none" stroke="#63b8ff" d="M346.28,-604.78C343.55,-594.2 340.21,-580.92 337.5,-569 329.5,-533.82 321.43,-492.46 316.98,-469.08"/>
<polygon fill="#63b8ff" stroke="#63b8ff" points="320.4,-468.33 315.11,-459.15 313.52,-469.63 320.4,-468.33"/>
</a>
</g>
</g>
<!-- Node4&#45;&gt;Node2 -->
<g id="edge38_Node000004_Node000002" class="edge">
<title>Node4&#45;&gt;Node2</title>
<g id="a_edge38_Node000004_Node000002"><a xlink:title=" ">
<path fill="none" stroke="#63b8ff" d="M417.7,-385.02C381.77,-376.68 325.28,-363.44 267.02,-349.09"/>
<polygon fill="#63b8ff" stroke="#63b8ff" points="267.83,-345.68 257.28,-346.68 266.15,-352.48 267.83,-345.68"/>
</a>
</g>
</g>
<!-- Node5 -->
<g id="Node000005" class="node">
<title>Node5</title>
<g id="a_Node000005"><a xlink:href="mp__arith_8h.html" target="_top" xlink:title=" ">
<polygon fill="white" stroke="#666666" points="579.5,-129 491.5,-129 491.5,-110 579.5,-110 579.5,-129"/>
<text text-anchor="middle" x="535.5" y="-117" font-family="Helvetica,sans-Serif" font-size="10.00">util/mp_arith.h</text>
</a>
</g>
</g>
<!-- Node4&#45;&gt;Node5 -->
<g id="edge4_Node000004_Node000005" class="edge">
<title>Node4&#45;&gt;Node5</title>
<g id="a_edge4_Node000004_Node000005"><a xlink:title=" ">
<path fill="none" stroke="#63b8ff" d="M484.95,-384.95C504.01,-378.13 527.67,-366.73 542.5,-349 561.4,-326.41 561.5,-314.96 561.5,-285.5 561.5,-285.5 561.5,-285.5 561.5,-228.5 561.5,-196.15 550.33,-159.82 542.64,-138.62"/>
<polygon fill="#63b8ff" stroke="#63b8ff" points="545.82,-137.13 539.01,-129.01 539.27,-139.6 545.82,-137.13"/>
</a>
</g>
</g>
<!-- Node9 -->
<g id="Node000009" class="node">
<title>Node9</title>
<g id="a_Node000009"><a xlink:href="coordinate_8h.html" target="_top" xlink:title=" ">
<polygon fill="white" stroke="#666666" points="680,-349 603,-349 603,-330 680,-330 680,-349"/>
<text text-anchor="middle" x="641.5" y="-337" font-family="Helvetica,sans-Serif" font-size="10.00">coordinate.h</text>
</a>
</g>
</g>
<!-- Node4&#45;&gt;Node9 -->
<g id="edge8_Node000004_Node000009" class="edge">
<title>Node4&#45;&gt;Node9</title>
<g id="a_edge8_Node000004_Node000009"><a xlink:title=" ">
<path fill="none" stroke="#63b8ff" d="M484.54,-384.98C516.21,-376.01 566.27,-361.82 601.31,-351.89"/>
<polygon fill="#63b8ff" stroke="#63b8ff" points="602.55,-355.18 611.22,-349.08 600.64,-348.44 602.55,-355.18"/>
</a>
</g>
</g>
<!-- Node10 -->
<g id="Node000010" class="node">
<title>Node10</title>
<g id="a_Node000010"><a xlink:href="vertex_8h.html" target="_top" xlink:title=" ">
<polygon fill="white" stroke="#666666" points="483,-349 426,-349 426,-330 483,-330 483,-349"/>
<text text-anchor="middle" x="454.5" y="-337" font-family="Helvetica,sans-Serif" font-size="10.00">vertex.h</text>
</a>
</g>
</g>
<!-- Node4&#45;&gt;Node10 -->
<g id="edge10_Node000004_Node000010" class="edge">
<title>Node4&#45;&gt;Node10</title>
<g id="a_edge10_Node000004_Node000010"><a xlink:title=" ">
<path fill="none" stroke="#63b8ff" d="M454.5,-384.75C454.5,-377.8 454.5,-367.85 454.5,-359.13"/>
<polygon fill="#63b8ff" stroke="#63b8ff" points="458,-359.09 454.5,-349.09 451,-359.09 458,-359.09"/>
</a>
</g>
</g>
<!-- Node48 -->
<g id="Node000048" class="node">
<title>Node48</title>
<g id="a_Node000048"><a xlink:title=" ">
<polygon fill="#e0e0e0" stroke="#999999" points="331.5,-349 275.5,-349 275.5,-330 331.5,-330 331.5,-349"/>
<text text-anchor="middle" x="303.5" y="-337" font-family="Helvetica,sans-Serif" font-size="10.00">assert.h</text>
</a>
</g>
</g>
<!-- Node4&#45;&gt;Node48 -->
<g id="edge35_Node000004_Node000048" class="edge">
<title>Node4&#45;&gt;Node48</title>
<g id="a_edge35_Node000004_Node000048"><a xlink:title=" ">
<path fill="none" stroke="#63b8ff" d="M430.24,-384.98C405.18,-376.19 365.87,-362.39 337.67,-352.49"/>
<polygon fill="#63b8ff" stroke="#63b8ff" points="338.8,-349.18 328.2,-349.17 336.48,-355.78 338.8,-349.18"/>
</a>
</g>
</g>
<!-- Node49 -->
<g id="Node000049" class="node">
<title>Node49</title>
<g id="a_Node000049"><a xlink:title=" ">
<polygon fill="#e0e0e0" stroke="#999999" points="407.5,-349 349.5,-349 349.5,-330 407.5,-330 407.5,-349"/>
<text text-anchor="middle" x="378.5" y="-337" font-family="Helvetica,sans-Serif" font-size="10.00">memory</text>
</a>
</g>
</g>
<!-- Node4&#45;&gt;Node49 -->
<g id="edge36_Node000004_Node000049" class="edge">
<title>Node4&#45;&gt;Node49</title>
<g id="a_edge36_Node000004_Node000049"><a xlink:title=" ">
<path fill="none" stroke="#63b8ff" d="M442.29,-384.98C430.72,-376.92 413.12,-364.65 399.34,-355.03"/>
<polygon fill="#63b8ff" stroke="#63b8ff" points="401.14,-352.02 390.93,-349.17 397.13,-357.76 401.14,-352.02"/>
</a>
</g>
</g>
<!-- Node50 -->
<g id="Node000050" class="node">
<title>Node50</title>
<g id="a_Node000050"><a xlink:title=" ">
<polygon fill="#e0e0e0" stroke="#999999" points="533.5,-349 501.5,-349 501.5,-330 533.5,-330 533.5,-349"/>
<text text-anchor="middle" x="517.5" y="-337" font-family="Helvetica,sans-Serif" font-size="10.00">set</text>
</a>
</g>
</g>
<!-- Node4&#45;&gt;Node50 -->
<g id="edge37_Node000004_Node000050" class="edge">
<title>Node4&#45;&gt;Node50</title>
<g id="a_edge37_Node000004_Node000050"><a xlink:title=" ">
<path fill="none" stroke="#63b8ff" d="M464.62,-384.98C473.94,-377.15 487.97,-365.34 499.24,-355.86"/>
<polygon fill="#63b8ff" stroke="#63b8ff" points="501.79,-358.29 507.19,-349.17 497.29,-352.93 501.79,-358.29"/>
</a>
</g>
</g>
<!-- Node6 -->
<g id="Node000006" class="node">
<title>Node6</title>
<g id="a_Node000006"><a xlink:title=" ">
<polygon fill="#e0e0e0" stroke="#999999" points="611.5,-74 563.5,-74 563.5,-55 611.5,-55 611.5,-74"/>
<text text-anchor="middle" x="587.5" y="-62" font-family="Helvetica,sans-Serif" font-size="10.00">iosfwd</text>
</a>
</g>
</g>
<!-- Node5&#45;&gt;Node6 -->
<g id="edge5_Node000005_Node000006" class="edge">
<title>Node5&#45;&gt;Node6</title>
<g id="a_edge5_Node000005_Node000006"><a xlink:title=" ">
<path fill="none" stroke="#63b8ff" d="M544.09,-109.75C551.66,-102.03 562.88,-90.6 572.01,-81.28"/>
<polygon fill="#63b8ff" stroke="#63b8ff" points="574.57,-83.68 579.07,-74.09 569.57,-78.78 574.57,-83.68"/>
</a>
</g>
</g>
<!-- Node7 -->
<g id="Node000007" class="node">
<title>Node7</title>
<g id="a_Node000007"><a xlink:title=" ">
<polygon fill="#e0e0e0" stroke="#999999" points="553.5,-19 509.5,-19 509.5,0 553.5,0 553.5,-19"/>
<text text-anchor="middle" x="531.5" y="-7" font-family="Helvetica,sans-Serif" font-size="10.00">string</text>
</a>
</g>
</g>
<!-- Node5&#45;&gt;Node7 -->
<g id="edge6_Node000005_Node000007" class="edge">
<title>Node5&#45;&gt;Node7</title>
<g id="a_edge6_Node000005_Node000007"><a xlink:title=" ">
<path fill="none" stroke="#63b8ff" d="M566.14,-109.93C596.55,-99.76 636.48,-80.85 620.5,-55 608.07,-34.89 583.49,-23.56 563.3,-17.37"/>
<polygon fill="#63b8ff" stroke="#63b8ff" points="564.1,-13.96 553.53,-14.66 562.23,-20.71 564.1,-13.96"/>
</a>
</g>
</g>
<!-- Node8 -->
<g id="Node000008" class="node">
<title>Node8</title>
<g id="a_Node000008"><a xlink:title=" ">
<polygon fill="#e0e0e0" stroke="#999999" points="545.5,-74 451.5,-74 451.5,-55 545.5,-55 545.5,-74"/>
<text text-anchor="middle" x="498.5" y="-62" font-family="Helvetica,sans-Serif" font-size="10.00">big&#45;int/bigint.hh</text>
</a>
</g>
</g>
<!-- Node5&#45;&gt;Node8 -->
<g id="edge7_Node000005_Node000008" class="edge">
<title>Node5&#45;&gt;Node8</title>
<g id="a_edge7_Node000005_Node000008"><a xlink:title=" ">
<path fill="none" stroke="#63b8ff" d="M529.39,-109.75C524.22,-102.34 516.65,-91.5 510.31,-82.41"/>
<polygon fill="#63b8ff" stroke="#63b8ff" points="513.09,-80.29 504.5,-74.09 507.35,-84.29 513.09,-80.29"/>
</a>
</g>
</g>
<!-- Node9&#45;&gt;Node7 -->
<g id="edge9_Node000009_Node000007" class="edge">
<title>Node9&#45;&gt;Node7</title>
<g id="a_edge9_Node000009_Node000007"><a xlink:title=" ">
<path fill="none" stroke="#63b8ff" d="M646.51,-329.87C656.4,-311.97 677.5,-269.24 677.5,-230.5 677.5,-230.5 677.5,-230.5 677.5,-118.5 677.5,-62.17 606.38,-31.86 563.41,-18.69"/>
<polygon fill="#63b8ff" stroke="#63b8ff" points="564.25,-15.29 553.67,-15.85 562.29,-22.01 564.25,-15.29"/>
</a>
</g>
</g>
<!-- Node10&#45;&gt;Node3 -->
<g id="edge34_Node000010_Node000003" class="edge">
<title>Node10&#45;&gt;Node3</title>
<g id="a_edge34_Node000010_Node000003"><a xlink:title=" ">
<path fill="none" stroke="#63b8ff" d="M425.88,-332.03C422.72,-331.33 419.54,-330.65 416.5,-330 353.41,-316.59 279.97,-302.01 235.65,-293.32"/>
<polygon fill="#63b8ff" stroke="#63b8ff" points="236.05,-289.83 225.57,-291.34 234.71,-296.7 236.05,-289.83"/>
</a>
</g>
</g>
<!-- Node10&#45;&gt;Node7 -->
<g id="edge33_Node000010_Node000007" class="edge">
<title>Node10&#45;&gt;Node7</title>
<g id="a_edge33_Node000010_Node000007"><a xlink:title=" ">
<path fill="none" stroke="#63b8ff" d="M450.19,-329.78C441.67,-311.73 423.5,-268.73 423.5,-230.5 423.5,-230.5 423.5,-230.5 423.5,-118.5 423.5,-89.04 423.55,-77.55 442.5,-55 457.27,-37.43 480.67,-26.11 499.78,-19.29"/>
<polygon fill="#63b8ff" stroke="#63b8ff" points="500.92,-22.6 509.31,-16.12 498.71,-15.96 500.92,-22.6"/>
</a>
</g>
</g>
<!-- Node11 -->
<g id="Node000011" class="node">
<title>Node11</title>
<g id="a_Node000011"><a xlink:href="rational__tools_8h.html" target="_top" xlink:title=" ">
<polygon fill="white" stroke="#666666" points="382,-294 271,-294 271,-275 382,-275 382,-294"/>
<text text-anchor="middle" x="326.5" y="-282" font-family="Helvetica,sans-Serif" font-size="10.00">util/rational_tools.h</text>
</a>
</g>
</g>
<!-- Node10&#45;&gt;Node11 -->
<g id="edge11_Node000010_Node000011" class="edge">
<title>Node10&#45;&gt;Node11</title>
<g id="a_edge11_Node000010_Node000011"><a xlink:title=" ">
<path fill="none" stroke="#63b8ff" d="M433.93,-329.98C413.07,-321.34 380.53,-307.87 356.73,-298.02"/>
<polygon fill="#63b8ff" stroke="#63b8ff" points="358.02,-294.76 347.44,-294.17 355.34,-301.23 358.02,-294.76"/>
</a>
</g>
</g>
<!-- Node47 -->
<g id="Node000047" class="node">
<title>Node47</title>
<g id="a_Node000047"><a xlink:href="rational_8h.html" target="_top" xlink:title=" ">
<polygon fill="white" stroke="#666666" points="533.5,-239 451.5,-239 451.5,-220 533.5,-220 533.5,-239"/>
<text text-anchor="middle" x="492.5" y="-227" font-family="Helvetica,sans-Serif" font-size="10.00">util/rational.h</text>
</a>
</g>
</g>
<!-- Node10&#45;&gt;Node47 -->
<g id="edge31_Node000010_Node000047" class="edge">
<title>Node10&#45;&gt;Node47</title>
<g id="a_edge31_Node000010_Node000047"><a xlink:title=" ">
<path fill="none" stroke="#63b8ff" d="M457.61,-329.66C463.82,-312.01 477.87,-272.09 486.12,-248.64"/>
<polygon fill="#63b8ff" stroke="#63b8ff" points="489.44,-249.75 489.45,-239.16 482.83,-247.43 489.44,-249.75"/>
</a>
</g>
</g>
<!-- Node12 -->
<g id="Node000012" class="node">
<title>Node12</title>
<g id="a_Node000012"><a xlink:href="std__expr_8h.html" target="_top" xlink:title="API to expression classes.">
<polygon fill="white" stroke="#666666" points="333,-239 266,-239 266,-220 333,-220 333,-239"/>
<text text-anchor="middle" x="299.5" y="-227" font-family="Helvetica,sans-Serif" font-size="10.00">std_expr.h</text>
</a>
</g>
</g>
<!-- Node11&#45;&gt;Node12 -->
<g id="edge12_Node000011_Node000012" class="edge">
<title>Node11&#45;&gt;Node12</title>
<g id="a_edge12_Node000011_Node000012"><a xlink:title=" ">
<path fill="none" stroke="#63b8ff" d="M322.04,-274.75C318.38,-267.57 313.09,-257.18 308.55,-248.27"/>
<polygon fill="#63b8ff" stroke="#63b8ff" points="311.53,-246.41 303.88,-239.09 305.3,-249.59 311.53,-246.41"/>
</a>
</g>
</g>
<!-- Node13 -->
<g id="Node000013" class="node">
<title>Node13</title>
<g id="a_Node000013"><a xlink:href="expr__cast_8h.html" target="_top" xlink:title="Templated functions to cast to specific exprt&#45;derived classes.">
<polygon fill="white" stroke="#666666" points="125,-129 52,-129 52,-110 125,-110 125,-129"/>
<text text-anchor="middle" x="88.5" y="-117" font-family="Helvetica,sans-Serif" font-size="10.00">expr_cast.h</text>
</a>
</g>
</g>
<!-- Node12&#45;&gt;Node13 -->
<g id="edge13_Node000012_Node000013" class="edge">
<title>Node12&#45;&gt;Node13</title>
<g id="a_edge13_Node000012_Node000013"><a xlink:title=" ">
<path fill="none" stroke="#63b8ff" d="M282.59,-219.84C245.77,-201 158.14,-156.14 114.34,-133.73"/>
<polygon fill="#63b8ff" stroke="#63b8ff" points="115.69,-130.49 105.2,-129.05 112.5,-136.72 115.69,-130.49"/>
</a>
</g>
</g>
<!-- Node17 -->
<g id="Node000017" class="node">
<title>Node17</title>
<g id="a_Node000017"><a xlink:href="src_2util_2invariant_8h.html" target="_top" xlink:title=" ">
<polygon fill="#fff0f0" stroke="red" points="382,-74 313,-74 313,-55 382,-55 382,-74"/>
<text text-anchor="middle" x="347.5" y="-62" font-family="Helvetica,sans-Serif" font-size="10.00">invariant.h</text>
</a>
</g>
</g>
<!-- Node12&#45;&gt;Node17 -->
<g id="edge22_Node000012_Node000017" class="edge">
<title>Node12&#45;&gt;Node17</title>
<g id="a_edge22_Node000012_Node000017"><a xlink:title=" ">
<path fill="none" stroke="#63b8ff" d="M304.95,-219.88C315.19,-203.15 337.05,-164.74 345.5,-129 348.96,-114.37 349.3,-97.32 348.87,-84.58"/>
<polygon fill="#63b8ff" stroke="#63b8ff" points="352.34,-84.07 348.31,-74.27 345.36,-84.44 352.34,-84.07"/>
</a>
</g>
</g>
<!-- Node46 -->
<g id="Node000046" class="node">
<title>Node46</title>
<g id="a_Node000046"><a xlink:href="std__types_8h.html" target="_top" xlink:title="Pre&#45;defined types.">
<polygon fill="white" stroke="#666666" points="309,-184 236,-184 236,-165 309,-165 309,-184"/>
<text text-anchor="middle" x="272.5" y="-172" font-family="Helvetica,sans-Serif" font-size="10.00">std_types.h</text>
</a>
</g>
</g>
<!-- Node12&#45;&gt;Node46 -->
<g id="edge23_Node000012_Node000046" class="edge">
<title>Node12&#45;&gt;Node46</title>
<g id="a_edge23_Node000012_Node000046"><a xlink:title=" ">
<path fill="none" stroke="#63b8ff" d="M295.04,-219.75C291.38,-212.57 286.09,-202.18 281.55,-193.27"/>
<polygon fill="#63b8ff" stroke="#63b8ff" points="284.53,-191.41 276.88,-184.09 278.3,-194.59 284.53,-191.41"/>
</a>
</g>
</g>
<!-- Node14 -->
<g id="Node000014" class="node">
<title>Node14</title>
<g id="a_Node000014"><a xlink:title=" ">
<polygon fill="#e0e0e0" stroke="#999999" points="161,-74 104,-74 104,-55 161,-55 161,-74"/>
<text text-anchor="middle" x="132.5" y="-62" font-family="Helvetica,sans-Serif" font-size="10.00">typeinfo</text>
</a>
</g>
</g>
<!-- Node13&#45;&gt;Node14 -->
<g id="edge14_Node000013_Node000014" class="edge">
<title>Node13&#45;&gt;Node14</title>
<g id="a_edge14_Node000013_Node000014"><a xlink:title=" ">
<path fill="none" stroke="#63b8ff" d="M95.77,-109.75C102.04,-102.18 111.29,-91.05 118.93,-81.84"/>
<polygon fill="#63b8ff" stroke="#63b8ff" points="121.67,-84.02 125.37,-74.09 116.29,-79.55 121.67,-84.02"/>
</a>
</g>
</g>
<!-- Node15 -->
<g id="Node000015" class="node">
<title>Node15</title>
<g id="a_Node000015"><a xlink:title=" ">
<polygon fill="#e0e0e0" stroke="#999999" points="262,-19 193,-19 193,0 262,0 262,-19"/>
<text text-anchor="middle" x="227.5" y="-7" font-family="Helvetica,sans-Serif" font-size="10.00">type_traits</text>
</a>
</g>
</g>
<!-- Node13&#45;&gt;Node15 -->
<g id="edge15_Node000013_Node000015" class="edge">
<title>Node13&#45;&gt;Node15</title>
<g id="a_edge15_Node000013_Node000015"><a xlink:title=" ">
<path fill="none" stroke="#63b8ff" d="M108.25,-109.9C125.37,-101.94 150.33,-89.08 169.5,-74 187.02,-60.22 203.83,-40.91 214.8,-27.22"/>
<polygon fill="#63b8ff" stroke="#63b8ff" points="217.72,-29.17 221.12,-19.14 212.2,-24.86 217.72,-29.17"/>
</a>
</g>
</g>
<!-- Node16 -->
<g id="Node000016" class="node">
<title>Node16</title>
<g id="a_Node000016"><a xlink:title=" ">
<polygon fill="#e0e0e0" stroke="#999999" points="82,-19 17,-19 17,0 82,0 82,-19"/>
<text text-anchor="middle" x="49.5" y="-7" font-family="Helvetica,sans-Serif" font-size="10.00">functional</text>
</a>
</g>
</g>
<!-- Node13&#45;&gt;Node16 -->
<g id="edge16_Node000013_Node000016" class="edge">
<title>Node13&#45;&gt;Node16</title>
<g id="a_edge16_Node000013_Node000016"><a xlink:title=" ">
<path fill="none" stroke="#63b8ff" d="M85.31,-109.66C78.93,-92.01 64.52,-52.09 56.05,-28.64"/>
<polygon fill="#63b8ff" stroke="#63b8ff" points="59.32,-27.38 52.63,-19.16 52.73,-29.75 59.32,-27.38"/>
</a>
</g>
</g>
<!-- Node13&#45;&gt;Node17 -->
<g id="edge17_Node000013_Node000017" class="edge">
<title>Node13&#45;&gt;Node17</title>
<g id="a_edge17_Node000013_Node000017"><a xlink:title=" ">
<path fill="none" stroke="#63b8ff" d="M125.06,-111.02C171.76,-101.46 252.55,-84.93 302.84,-74.64"/>
<polygon fill="#63b8ff" stroke="#63b8ff" points="303.69,-78.04 312.78,-72.6 302.28,-71.18 303.69,-78.04"/>
</a>
</g>
</g>
<!-- Node20 -->
<g id="Node000020" class="node">
<title>Node20</title>
<g id="a_Node000020"><a xlink:href="expr_8h.html" target="_top" xlink:title=" ">
<polygon fill="#fff0f0" stroke="red" points="47,-74 0,-74 0,-55 47,-55 47,-74"/>
<text text-anchor="middle" x="23.5" y="-62" font-family="Helvetica,sans-Serif" font-size="10.00">expr.h</text>
</a>
</g>
</g>
<!-- Node13&#45;&gt;Node20 -->
<g id="edge20_Node000013_Node000020" class="edge">
<title>Node13&#45;&gt;Node20</title>
<g id="a_edge20_Node000013_Node000020"><a xlink:title=" ">
<path fill="none" stroke="#63b8ff" d="M78.06,-109.98C68.35,-102.07 53.68,-90.11 42,-80.58"/>
<polygon fill="#63b8ff" stroke="#63b8ff" points="44.1,-77.78 34.13,-74.17 39.67,-83.2 44.1,-77.78"/>
</a>
</g>
</g>
<!-- Node17&#45;&gt;Node7 -->
<g id="edge18_Node000017_Node000007" class="edge">
<title>Node17&#45;&gt;Node7</title>
<g id="a_edge18_Node000017_Node000007"><a xlink:title=" ">
<path fill="none" stroke="#63b8ff" d="M377.06,-54.98C410.48,-45.36 464.71,-29.74 499.21,-19.8"/>
<polygon fill="#63b8ff" stroke="#63b8ff" points="500.6,-23.04 509.24,-16.91 498.67,-16.32 500.6,-23.04"/>
</a>
</g>
</g>
<!-- Node17&#45;&gt;Node15 -->
<g id="edge19_Node000017_Node000015" class="edge">
<title>Node17&#45;&gt;Node15</title>
<g id="a_edge19_Node000017_Node000015"><a xlink:title=" ">
<path fill="none" stroke="#63b8ff" d="M328.22,-54.98C308.83,-46.42 278.69,-33.11 256.43,-23.28"/>
<polygon fill="#63b8ff" stroke="#63b8ff" points="257.69,-20.01 247.13,-19.17 254.86,-26.41 257.69,-20.01"/>
</a>
</g>
</g>
<!-- Node20&#45;&gt;Node16 -->
<g id="edge21_Node000020_Node000016" class="edge">
<title>Node20&#45;&gt;Node16</title>
<g id="a_edge21_Node000020_Node000016"><a xlink:title=" ">
<path fill="none" stroke="#63b8ff" d="M27.79,-54.75C31.31,-47.57 36.41,-37.18 40.78,-28.27"/>
<polygon fill="#63b8ff" stroke="#63b8ff" points="44.02,-29.61 45.29,-19.09 37.74,-26.53 44.02,-29.61"/>
</a>
</g>
</g>
<!-- Node46&#45;&gt;Node5 -->
<g id="edge27_Node000046_Node000005" class="edge">
<title>Node46&#45;&gt;Node5</title>
<g id="a_edge27_Node000046_Node000005"><a xlink:title=" ">
<path fill="none" stroke="#63b8ff" d="M309.07,-166.13C354.32,-157.01 431.69,-141.42 483.21,-131.04"/>
<polygon fill="#63b8ff" stroke="#63b8ff" points="484.04,-134.44 493.15,-129.03 482.66,-127.58 484.04,-134.44"/>
</a>
</g>
</g>
<!-- Node46&#45;&gt;Node13 -->
<g id="edge25_Node000046_Node000013" class="edge">
<title>Node46&#45;&gt;Node13</title>
<g id="a_edge25_Node000046_Node000013"><a xlink:title=" ">
<path fill="none" stroke="#63b8ff" d="M242.94,-164.98C211.78,-156.01 162.53,-141.82 128.04,-131.89"/>
<polygon fill="#63b8ff" stroke="#63b8ff" points="128.87,-128.49 118.29,-129.08 126.93,-135.21 128.87,-128.49"/>
</a>
</g>
</g>
<!-- Node46&#45;&gt;Node17 -->
<g id="edge26_Node000046_Node000017" class="edge">
<title>Node46&#45;&gt;Node17</title>
<g id="a_edge26_Node000046_Node000017"><a xlink:title=" ">
<path fill="none" stroke="#63b8ff" d="M287.65,-164.76C300.03,-156.89 317.13,-144.23 327.5,-129 336.65,-115.57 341.78,-97.73 344.55,-84.38"/>
<polygon fill="#63b8ff" stroke="#63b8ff" points="348.02,-84.88 346.35,-74.42 341.13,-83.64 348.02,-84.88"/>
</a>
</g>
</g>
<!-- Node46&#45;&gt;Node20 -->
<g id="edge24_Node000046_Node000020" class="edge">
<title>Node46&#45;&gt;Node20</title>
<g id="a_edge24_Node000046_Node000020"><a xlink:title=" ">
<path fill="none" stroke="#63b8ff" d="M235.68,-170.96C178.09,-166.24 70.39,-154.24 42.5,-129 30.11,-117.79 25.66,-98.87 24.14,-84.59"/>
<polygon fill="#63b8ff" stroke="#63b8ff" points="27.61,-84.11 23.44,-74.37 20.63,-84.59 27.61,-84.11"/>
</a>
</g>
</g>
<!-- Node41 -->
<g id="Node000041" class="node">
<title>Node41</title>
<g id="a_Node000041"><a xlink:href="validate_8h.html" target="_top" xlink:title=" ">
<polygon fill="#fff0f0" stroke="red" points="208,-129 143,-129 143,-110 208,-110 208,-129"/>
<text text-anchor="middle" x="175.5" y="-117" font-family="Helvetica,sans-Serif" font-size="10.00">validate.h</text>
</a>
</g>
</g>
<!-- Node46&#45;&gt;Node41 -->
<g id="edge28_Node000046_Node000041" class="edge">
<title>Node46&#45;&gt;Node41</title>
<g id="a_edge28_Node000046_Node000041"><a xlink:title=" ">
<path fill="none" stroke="#63b8ff" d="M256.92,-164.98C241.73,-156.69 218.4,-143.94 200.6,-134.22"/>
<polygon fill="#63b8ff" stroke="#63b8ff" points="201.82,-130.89 191.37,-129.17 198.47,-137.04 201.82,-130.89"/>
</a>
</g>
</g>
<!-- Node32 -->
<g id="Node000032" class="node">
<title>Node32</title>
<g id="a_Node000032"><a xlink:title=" ">
<polygon fill="#e0e0e0" stroke="#999999" points="319,-129 226,-129 226,-110 319,-110 319,-129"/>
<text text-anchor="middle" x="272.5" y="-117" font-family="Helvetica,sans-Serif" font-size="10.00">unordered_map</text>
</a>
</g>
</g>
<!-- Node46&#45;&gt;Node32 -->
<g id="edge30_Node000046_Node000032" class="edge">
<title>Node46&#45;&gt;Node32</title>
<g id="a_edge30_Node000046_Node000032"><a xlink:title=" ">
<path fill="none" stroke="#63b8ff" d="M272.5,-164.75C272.5,-157.8 272.5,-147.85 272.5,-139.13"/>
<polygon fill="#63b8ff" stroke="#63b8ff" points="276,-139.09 272.5,-129.09 269,-139.09 276,-139.09"/>
</a>
</g>
</g>
<!-- Node41&#45;&gt;Node15 -->
<g id="edge29_Node000041_Node000015" class="edge">
<title>Node41&#45;&gt;Node15</title>
<g id="a_edge29_Node000041_Node000015"><a xlink:title=" ">
<path fill="none" stroke="#63b8ff" d="M181.62,-109.94C187.69,-101.19 197,-87.08 203.5,-74 210.8,-59.33 217.25,-41.86 221.62,-28.96"/>
<polygon fill="#63b8ff" stroke="#63b8ff" points="224.98,-29.95 224.78,-19.36 218.33,-27.77 224.98,-29.95"/>
</a>
</g>
</g>
<!-- Node47&#45;&gt;Node5 -->
<g id="edge32_Node000047_Node000005" class="edge">
<title>Node47&#45;&gt;Node5</title>
<g id="a_edge32_Node000047_Node000005"><a xlink:title=" ">
<path fill="none" stroke="#63b8ff" d="M496.02,-219.66C503.05,-202.01 518.94,-162.09 528.28,-138.64"/>
<polygon fill="#63b8ff" stroke="#63b8ff" points="531.61,-139.74 532.05,-129.16 525.1,-137.15 531.61,-139.74"/>
</a>
</g>
</g>
<!-- Node51&#45;&gt;Node4 -->
<g id="edge40_Node000051_Node000004" class="edge">
<title>Node51&#45;&gt;Node4</title>
<g id="a_edge40_Node000051_Node000004"><a xlink:title=" ">
<path fill="none" stroke="#63b8ff" d="M440.73,-494.66C443.16,-477.17 448.62,-437.8 451.89,-414.27"/>
<polygon fill="#63b8ff" stroke="#63b8ff" points="455.39,-414.54 453.3,-404.16 448.45,-413.58 455.39,-414.54"/>
</a>
</g>
</g>
<!-- Node52&#45;&gt;Node4 -->
<g id="edge43_Node000052_Node000004" class="edge">
<title>Node52&#45;&gt;Node4</title>
<g id="a_edge43_Node000052_Node000004"><a xlink:title=" ">
<path fill="none" stroke="#63b8ff" d="M511.48,-549.69C512.59,-537.25 513.63,-513.95 508.5,-495 500.03,-463.7 480.04,-431.41 466.91,-412.41"/>
<polygon fill="#63b8ff" stroke="#63b8ff" points="469.73,-410.35 461.09,-404.22 464.02,-414.4 469.73,-410.35"/>
</a>
</g>
</g>
<!-- Node52&#45;&gt;Node51 -->
<g id="edge42_Node000052_Node000051" class="edge">
<title>Node52&#45;&gt;Node51</title>
<g id="a_edge42_Node000052_Node000051"><a xlink:title=" ">
<path fill="none" stroke="#63b8ff" d="M499.09,-549.98C488.39,-542 472.16,-529.88 459.34,-520.31"/>
<polygon fill="#63b8ff" stroke="#63b8ff" points="461.22,-517.35 451.11,-514.17 457.03,-522.96 461.22,-517.35"/>
</a>
</g>
</g>
<!-- Node52&#45;&gt;Node53 -->
<g id="edge44_Node000052_Node000053" class="edge">
<title>Node52&#45;&gt;Node53</title>
<g id="a_edge44_Node000052_Node000053"><a xlink:title=" ">
<path fill="none" stroke="#63b8ff" d="M526.25,-549.98C541.73,-541.61 565.59,-528.7 583.64,-518.95"/>
<polygon fill="#63b8ff" stroke="#63b8ff" points="585.34,-522.01 592.47,-514.17 582.01,-515.85 585.34,-522.01"/>
</a>
</g>
</g>
<!-- Node53&#45;&gt;Node4 -->
<g id="edge45_Node000053_Node000004" class="edge">
<title>Node53&#45;&gt;Node4</title>
<g id="a_edge45_Node000053_Node000004"><a xlink:title=" ">
<path fill="none" stroke="#63b8ff" d="M600.91,-494.87C589.13,-481.83 565.31,-456.84 541.5,-440 523.62,-427.35 501.65,-416.14 484.26,-408.14"/>
<polygon fill="#63b8ff" stroke="#63b8ff" points="485.68,-404.94 475.13,-404.03 482.81,-411.33 485.68,-404.94"/>
</a>
</g>
</g>
<!-- Node54 -->
<g id="Node000054" class="node">
<title>Node54</title>
<g id="a_Node000054"><a xlink:href="dyadic__inequality_8h.html" target="_top" xlink:title=" ">
<polygon fill="white" stroke="#666666" points="703.5,-459 593.5,-459 593.5,-440 703.5,-440 703.5,-459"/>
<text text-anchor="middle" x="648.5" y="-447" font-family="Helvetica,sans-Serif" font-size="10.00">dyadic_inequality.h</text>
</a>
</g>
</g>
<!-- Node53&#45;&gt;Node54 -->
<g id="edge46_Node000053_Node000054" class="edge">
<title>Node53&#45;&gt;Node54</title>
<g id="a_edge46_Node000053_Node000054"><a xlink:title=" ">
<path fill="none" stroke="#63b8ff" d="M615.11,-494.75C620.76,-487.26 629.04,-476.28 635.95,-467.13"/>
<polygon fill="#63b8ff" stroke="#63b8ff" points="638.79,-469.18 642.02,-459.09 633.2,-464.96 638.79,-469.18"/>
</a>
</g>
</g>
<!-- Node54&#45;&gt;Node4 -->
<g id="edge49_Node000054_Node000004" class="edge">
<title>Node54&#45;&gt;Node4</title>
<g id="a_edge49_Node000054_Node000004"><a xlink:title=" ">
<path fill="none" stroke="#63b8ff" d="M617.33,-439.98C584.34,-430.97 532.1,-416.7 495.73,-406.76"/>
<polygon fill="#63b8ff" stroke="#63b8ff" points="496.48,-403.34 485.91,-404.08 494.64,-410.09 496.48,-403.34"/>
</a>
</g>
</g>
<!-- Node54&#45;&gt;Node9 -->
<g id="edge48_Node000054_Node000009" class="edge">
<title>Node54&#45;&gt;Node9</title>
<g id="a_edge48_Node000054_Node000009"><a xlink:title=" ">
<path fill="none" stroke="#63b8ff" d="M647.93,-439.66C646.79,-422.17 644.24,-382.8 642.72,-359.27"/>
<polygon fill="#63b8ff" stroke="#63b8ff" points="646.2,-358.91 642.06,-349.16 639.22,-359.36 646.2,-358.91"/>
</a>
</g>
</g>
<!-- Node55 -->
<g id="Node000055" class="node">
<title>Node55</title>
<g id="a_Node000055"><a xlink:title=" ">
<polygon fill="#e0e0e0" stroke="#999999" points="717,-404 670,-404 670,-385 717,-385 717,-404"/>
<text text-anchor="middle" x="693.5" y="-392" font-family="Helvetica,sans-Serif" font-size="10.00">cmath</text>
</a>
</g>
</g>
<!-- Node54&#45;&gt;Node55 -->
<g id="edge47_Node000054_Node000055" class="edge">
<title>Node54&#45;&gt;Node55</title>
<g id="a_edge47_Node000054_Node000055"><a xlink:title=" ">
<path fill="none" stroke="#63b8ff" d="M655.93,-439.75C662.35,-432.18 671.81,-421.05 679.62,-411.84"/>
<polygon fill="#63b8ff" stroke="#63b8ff" points="682.4,-413.98 686.21,-404.09 677.07,-409.45 682.4,-413.98"/>
</a>
</g>
</g>
<!-- Node56&#45;&gt;Node4 -->
<g id="edge52_Node000056_Node000004" class="edge">
<title>Node56&#45;&gt;Node4</title>
<g id="a_edge52_Node000056_Node000004"><a xlink:title=" ">
<path fill="none" stroke="#63b8ff" d="M336.15,-439.98C359.35,-431.27 395.62,-417.63 421.9,-407.75"/>
<polygon fill="#63b8ff" stroke="#63b8ff" points="423.3,-410.97 431.43,-404.17 420.84,-404.41 423.3,-410.97"/>
</a>
</g>
</g>
</g>
</svg>
