<?xml version="1.0" encoding="UTF-8" standalone="no"?>
<!DOCTYPE svg PUBLIC "-//W3C//DTD SVG 1.1//EN"
 "http://www.w3.org/Graphics/SVG/1.1/DTD/svg11.dtd">
<!-- Generated by graphviz version 2.43.0 (0)
 -->
<!-- Title: /home/runner/work/cbmc/cbmc/src/analyses Pages: 1 -->
<svg width="416pt" height="196pt"
 viewBox="0.00 0.00 416.00 196.00" xmlns="http://www.w3.org/2000/svg" xmlns:xlink="http://www.w3.org/1999/xlink">
<g id="graph0" class="graph" transform="scale(1 1) rotate(0) translate(4 192)">
<title>/home/runner/work/cbmc/cbmc/src/analyses</title>
<g id="clust1" class="cluster">
<title>clusterdir_68267d1309a1af8e8297ef4c3efbcdba</title>
<g id="a_clust1"><a xlink:href="dir_68267d1309a1af8e8297ef4c3efbcdba.html" target="_top" xlink:title="src">
<polygon fill="#e5e9f1" stroke="#404040" stroke-dasharray="5,2" points="8,-8 8,-180 400,-180 400,-8 8,-8"/>
<text text-anchor="middle" x="204" y="-168" font-family="Helvetica,sans-Serif" font-size="10.00">src</text>
</a>
</g>
</g>
<g id="clust2" class="cluster">
<title>clusterdir_ba7b98ca4ba342c6303fef7df3e3d6c7</title>
<g id="a_clust2"><a xlink:href="dir_ba7b98ca4ba342c6303fef7df3e3d6c7.html" target="_top">
<polygon fill="#e5e9f1" stroke="#404040" stroke-width="2" points="230,-63 230,-153 360,-153 360,-63 230,-63"/>
</a>
</g>
</g>
<!-- dir_0ae8a7d84de7430323d0a8da6a53a1ca -->
<g id="node1" class="node">
<title>dir_0ae8a7d84de7430323d0a8da6a53a1ca</title>
<g id="a_node1"><a xlink:href="dir_0ae8a7d84de7430323d0a8da6a53a1ca.html" target="_top" xlink:title="pointer&#45;analysis">
<polygon fill="#8499bb" stroke="#404040" points="131.5,-90 36.5,-90 36.5,-71 131.5,-71 131.5,-90"/>
<text text-anchor="middle" x="84" y="-78" font-family="Helvetica,sans-Serif" font-size="10.00">pointer&#45;analysis</text>
</a>
</g>
</g>
<!-- dir_19373f467389307dc54ab8a6e9e19559 -->
<g id="node2" class="node">
<title>dir_19373f467389307dc54ab8a6e9e19559</title>
<g id="a_node2"><a xlink:href="dir_19373f467389307dc54ab8a6e9e19559.html" target="_top" xlink:title="solvers">
<polygon fill="#8499bb" stroke="red" points="222,-90 170,-90 170,-71 222,-71 222,-90"/>
<text text-anchor="middle" x="196" y="-78" font-family="Helvetica,sans-Serif" font-size="10.00">solvers</text>
</a>
</g>
</g>
<!-- dir_245199dd16b1f3757d78c9dc7747589d -->
<g id="node3" class="node">
<title>dir_245199dd16b1f3757d78c9dc7747589d</title>
<g id="a_node3"><a xlink:href="dir_245199dd16b1f3757d78c9dc7747589d.html" target="_top" xlink:title="langapi">
<polygon fill="#8499bb" stroke="#404040" points="249.5,-35 196.5,-35 196.5,-16 249.5,-16 249.5,-35"/>
<text text-anchor="middle" x="223" y="-23" font-family="Helvetica,sans-Serif" font-size="10.00">langapi</text>
</a>
</g>
</g>
<!-- dir_807c5b2c83e0c14a10083f60cf67ca05 -->
<g id="node4" class="node">
<title>dir_807c5b2c83e0c14a10083f60cf67ca05</title>
<g id="a_node4"><a xlink:href="dir_807c5b2c83e0c14a10083f60cf67ca05.html" target="_top" xlink:title="goto&#45;programs">
<polygon fill="#8499bb" stroke="#404040" points="177.5,-35 88.5,-35 88.5,-16 177.5,-16 177.5,-35"/>
<text text-anchor="middle" x="133" y="-23" font-family="Helvetica,sans-Serif" font-size="10.00">goto&#45;programs</text>
</a>
</g>
</g>
<!-- dir_b7878ad5ecbf2506f4125b9d34c97e45 -->
<g id="node5" class="node">
<title>dir_b7878ad5ecbf2506f4125b9d34c97e45</title>
<g id="a_node5"><a xlink:href="dir_b7878ad5ecbf2506f4125b9d34c97e45.html" target="_top" xlink:title="util">
<polygon fill="#8499bb" stroke="#404040" points="387,-35 355,-35 355,-16 387,-16 387,-35"/>
<text text-anchor="middle" x="371" y="-23" font-family="Helvetica,sans-Serif" font-size="10.00">util</text>
</a>
</g>
</g>
<!-- dir_ba7b98ca4ba342c6303fef7df3e3d6c7 -->
<g id="node6" class="node">
<title>dir_ba7b98ca4ba342c6303fef7df3e3d6c7</title>
<text text-anchor="middle" x="268" y="-133" font-family="Helvetica,sans-Serif" font-size="10.00">analyses</text>
</g>
<!-- dir_ba7b98ca4ba342c6303fef7df3e3d6c7&#45;&gt;dir_0ae8a7d84de7430323d0a8da6a53a1ca -->
<g id="edge1" class="edge">
<title>dir_ba7b98ca4ba342c6303fef7df3e3d6c7&#45;&gt;dir_0ae8a7d84de7430323d0a8da6a53a1ca</title>
<g id="a_edge1"><a xlink:href="dir_000001_000054.html" target="_top">
<path fill="none" stroke="#63b8ff" d="M238.44,-125.98C207.28,-117.01 158.03,-102.82 123.54,-92.89"/>
<polygon fill="#63b8ff" stroke="#63b8ff" points="124.37,-89.49 113.79,-90.08 122.43,-96.21 124.37,-89.49"/>
</a>
</g>
<g id="a_edge1&#45;headlabel"><a xlink:href="dir_000001_000054.html" target="_top" xlink:title="2">
<text text-anchor="middle" x="128.61" y="-85.25" font-family="Helvetica,sans-Serif" font-size="10.00" fill="#63b8ff">2</text>
</a>
</g>
</g>
<!-- dir_ba7b98ca4ba342c6303fef7df3e3d6c7&#45;&gt;dir_19373f467389307dc54ab8a6e9e19559 -->
<g id="edge2" class="edge">
<title>dir_ba7b98ca4ba342c6303fef7df3e3d6c7&#45;&gt;dir_19373f467389307dc54ab8a6e9e19559</title>
<g id="a_edge2"><a xlink:href="dir_000001_000061.html" target="_top">
<path fill="none" stroke="#63b8ff" d="M256.43,-125.98C245.58,-118 229.12,-105.88 216.12,-96.31"/>
<polygon fill="#63b8ff" stroke="#63b8ff" points="217.91,-93.28 207.78,-90.17 213.76,-98.92 217.91,-93.28"/>
</a>
</g>
<g id="a_edge2&#45;headlabel"><a xlink:href="dir_000001_000061.html" target="_top" xlink:title="7">
<text text-anchor="middle" x="222.48" y="-90.62" font-family="Helvetica,sans-Serif" font-size="10.00" fill="#63b8ff">7</text>
</a>
</g>
</g>
<!-- dir_ba7b98ca4ba342c6303fef7df3e3d6c7&#45;&gt;dir_245199dd16b1f3757d78c9dc7747589d -->
<g id="edge3" class="edge">
<title>dir_ba7b98ca4ba342c6303fef7df3e3d6c7&#45;&gt;dir_245199dd16b1f3757d78c9dc7747589d</title>
<g id="a_edge3"><a xlink:href="dir_000001_000042.html" target="_top">
<path fill="none" stroke="#63b8ff" d="M237.77,-131.03C212.51,-126.36 177.97,-115.44 161,-90 154.34,-80.02 155.04,-73.42 161,-63 166.9,-52.68 176.97,-44.99 187.31,-39.4"/>
<polygon fill="#63b8ff" stroke="#63b8ff" points="188.89,-42.53 196.36,-35.02 185.83,-36.23 188.89,-42.53"/>
</a>
</g>
<g id="a_edge3&#45;headlabel"><a xlink:href="dir_000001_000042.html" target="_top" xlink:title="7">
<text text-anchor="middle" x="186.89" y="-44.15" font-family="Helvetica,sans-Serif" font-size="10.00" fill="#63b8ff">7</text>
</a>
</g>
</g>
<!-- dir_ba7b98ca4ba342c6303fef7df3e3d6c7&#45;&gt;dir_807c5b2c83e0c14a10083f60cf67ca05 -->
<g id="edge4" class="edge">
<title>dir_ba7b98ca4ba342c6303fef7df3e3d6c7&#45;&gt;dir_807c5b2c83e0c14a10083f60cf67ca05</title>
<g id="a_edge4"><a xlink:href="dir_000001_000030.html" target="_top">
<path fill="none" stroke="#63b8ff" d="M237.99,-133.56C179.48,-131.02 53.54,-121.89 27,-90 19.32,-80.78 20.03,-72.77 27,-63 38.94,-46.26 59.08,-37.12 78.62,-32.16"/>
<polygon fill="#63b8ff" stroke="#63b8ff" points="79.42,-35.57 88.42,-29.99 77.9,-28.73 79.42,-35.57"/>
</a>
</g>
<g id="a_edge4&#45;headlabel"><a xlink:href="dir_000001_000030.html" target="_top" xlink:title="26">
<text text-anchor="middle" x="76.52" y="-36.62" font-family="Helvetica,sans-Serif" font-size="10.00" fill="#63b8ff">26</text>
</a>
</g>
</g>
<!-- dir_ba7b98ca4ba342c6303fef7df3e3d6c7&#45;&gt;dir_b7878ad5ecbf2506f4125b9d34c97e45 -->
<g id="edge5" class="edge">
<title>dir_ba7b98ca4ba342c6303fef7df3e3d6c7&#45;&gt;dir_b7878ad5ecbf2506f4125b9d34c97e45</title>
<g id="a_edge5"><a xlink:href="dir_000001_000074.html" target="_top">
<path fill="none" stroke="#63b8ff" d="M298.31,-127.88C319.24,-121.68 345.92,-110.24 361,-90 370.48,-77.28 372.52,-59.1 372.45,-45.45"/>
<polygon fill="#63b8ff" stroke="#63b8ff" points="375.94,-45.11 372.02,-35.27 368.94,-45.41 375.94,-45.11"/>
</a>
</g>
<g id="a_edge5&#45;headlabel"><a xlink:href="dir_000001_000074.html" target="_top" xlink:title="178">
<text text-anchor="middle" x="378.93" y="-46.08" font-family="Helvetica,sans-Serif" font-size="10.00" fill="#63b8ff">178</text>
</a>
</g>
</g>
<!-- dir_dae56a5930eef76245941a3e88ea1f5f -->
<g id="node7" class="node">
<title>dir_dae56a5930eef76245941a3e88ea1f5f</title>
<g id="a_node7"><a xlink:href="dir_dae56a5930eef76245941a3e88ea1f5f.html" target="_top" xlink:title="tvpi">
<polygon fill="#8499bb" stroke="#404040" points="351.5,-145 316.5,-145 316.5,-126 351.5,-126 351.5,-145"/>
<text text-anchor="middle" x="334" y="-133" font-family="Helvetica,sans-Serif" font-size="10.00">tvpi</text>
</a>
</g>
</g>
<!-- dir_dae56a5930eef76245941a3e88ea1f5f&#45;&gt;dir_19373f467389307dc54ab8a6e9e19559 -->
<g id="edge6" class="edge">
<title>dir_dae56a5930eef76245941a3e88ea1f5f&#45;&gt;dir_19373f467389307dc54ab8a6e9e19559</title>
<g id="a_edge6"><a xlink:href="dir_000069_000061.html" target="_top">
<path fill="none" stroke="#63b8ff" d="M316.24,-127.68C293.94,-119.11 255.27,-104.26 227.81,-93.72"/>
<polygon fill="#63b8ff" stroke="#63b8ff" points="228.84,-90.36 218.25,-90.05 226.33,-96.9 228.84,-90.36"/>
</a>
</g>
<g id="a_edge6&#45;headlabel"><a xlink:href="dir_000069_000061.html" target="_top" xlink:title="5">
<text text-anchor="middle" x="233.22" y="-86.5" font-family="Helvetica,sans-Serif" font-size="10.00" fill="#63b8ff">5</text>
</a>
</g>
</g>
<!-- dir_dae56a5930eef76245941a3e88ea1f5f&#45;&gt;dir_b7878ad5ecbf2506f4125b9d34c97e45 -->
<g id="edge7" class="edge">
<title>dir_dae56a5930eef76245941a3e88ea1f5f&#45;&gt;dir_b7878ad5ecbf2506f4125b9d34c97e45</title>
<g id="a_edge7"><a xlink:href="dir_000069_000074.html" target="_top">
<path fill="none" stroke="#63b8ff" d="M346.21,-125.86C356.35,-117.88 370.04,-105.01 376,-90 381.74,-75.55 379.67,-57.81 376.63,-44.76"/>
<polygon fill="#63b8ff" stroke="#63b8ff" points="380,-43.81 374,-35.08 373.24,-45.64 380,-43.81"/>
</a>
</g>
<g id="a_edge7&#45;headlabel"><a xlink:href="dir_000069_000074.html" target="_top" xlink:title="4">
<text text-anchor="middle" x="383.68" y="-44.04" font-family="Helvetica,sans-Serif" font-size="10.00" fill="#63b8ff">4</text>
</a>
</g>
</g>
<!-- dir_e5b48092f0b74ad1f6bdaf2e8a8b10de -->
<g id="node8" class="node">
<title>dir_e5b48092f0b74ad1f6bdaf2e8a8b10de</title>
<g id="a_node8"><a xlink:href="dir_e5b48092f0b74ad1f6bdaf2e8a8b10de.html" target="_top" xlink:title="variable&#45;sensitivity">
<polygon fill="#8499bb" stroke="#404040" points="351.5,-90 240.5,-90 240.5,-71 351.5,-71 351.5,-90"/>
<text text-anchor="middle" x="296" y="-78" font-family="Helvetica,sans-Serif" font-size="10.00">variable&#45;sensitivity</text>
</a>
</g>
</g>
<!-- dir_dae56a5930eef76245941a3e88ea1f5f&#45;&gt;dir_e5b48092f0b74ad1f6bdaf2e8a8b10de -->
<g id="edge8" class="edge">
<title>dir_dae56a5930eef76245941a3e88ea1f5f&#45;&gt;dir_e5b48092f0b74ad1f6bdaf2e8a8b10de</title>
<g id="a_edge8"><a xlink:href="dir_000069_000075.html" target="_top">
<path fill="none" stroke="#63b8ff" d="M327.73,-125.75C322.41,-118.34 314.64,-107.5 308.12,-98.41"/>
<polygon fill="#63b8ff" stroke="#63b8ff" points="310.83,-96.18 302.16,-90.09 305.14,-100.26 310.83,-96.18"/>
</a>
</g>
<g id="a_edge8&#45;headlabel"><a xlink:href="dir_000069_000075.html" target="_top" xlink:title="2">
<text text-anchor="middle" x="315.23" y="-94.94" font-family="Helvetica,sans-Serif" font-size="10.00" fill="#63b8ff">2</text>
</a>
</g>
</g>
<!-- dir_e5b48092f0b74ad1f6bdaf2e8a8b10de&#45;&gt;dir_245199dd16b1f3757d78c9dc7747589d -->
<g id="edge9" class="edge">
<title>dir_e5b48092f0b74ad1f6bdaf2e8a8b10de&#45;&gt;dir_245199dd16b1f3757d78c9dc7747589d</title>
<g id="a_edge9"><a xlink:href="dir_000075_000042.html" target="_top">
<path fill="none" stroke="#63b8ff" d="M284.27,-70.98C273.27,-63 256.58,-50.88 243.4,-41.31"/>
<polygon fill="#63b8ff" stroke="#63b8ff" points="245.09,-38.21 234.94,-35.17 240.98,-43.88 245.09,-38.21"/>
</a>
</g>
<g id="a_edge9&#45;headlabel"><a xlink:href="dir_000075_000042.html" target="_top" xlink:title="2">
<text text-anchor="middle" x="249.67" y="-35.53" font-family="Helvetica,sans-Serif" font-size="10.00" fill="#63b8ff">2</text>
</a>
</g>
</g>
<!-- dir_e5b48092f0b74ad1f6bdaf2e8a8b10de&#45;&gt;dir_807c5b2c83e0c14a10083f60cf67ca05 -->
<g id="edge10" class="edge">
<title>dir_e5b48092f0b74ad1f6bdaf2e8a8b10de&#45;&gt;dir_807c5b2c83e0c14a10083f60cf67ca05</title>
<g id="a_edge10"><a xlink:href="dir_000075_000030.html" target="_top">
<path fill="none" stroke="#63b8ff" d="M269.81,-70.98C242.56,-62.13 199.7,-48.19 169.22,-38.28"/>
<polygon fill="#63b8ff" stroke="#63b8ff" points="169.99,-34.85 159.39,-35.08 167.82,-41.5 169.99,-34.85"/>
</a>
</g>
<g id="a_edge10&#45;headlabel"><a xlink:href="dir_000075_000030.html" target="_top" xlink:title="2">
<text text-anchor="middle" x="174.28" y="-30.76" font-family="Helvetica,sans-Serif" font-size="10.00" fill="#63b8ff">2</text>
</a>
</g>
</g>
<!-- dir_e5b48092f0b74ad1f6bdaf2e8a8b10de&#45;&gt;dir_b7878ad5ecbf2506f4125b9d34c97e45 -->
<g id="edge11" class="edge">
<title>dir_e5b48092f0b74ad1f6bdaf2e8a8b10de&#45;&gt;dir_b7878ad5ecbf2506f4125b9d34c97e45</title>
<g id="a_edge11"><a xlink:href="dir_000075_000074.html" target="_top">
<path fill="none" stroke="#63b8ff" d="M308.05,-70.98C319.46,-62.92 336.83,-50.65 350.43,-41.03"/>
<polygon fill="#63b8ff" stroke="#63b8ff" points="352.58,-43.8 358.73,-35.17 348.54,-38.08 352.58,-43.8"/>
</a>
</g>
<g id="a_edge11&#45;headlabel"><a xlink:href="dir_000075_000074.html" target="_top" xlink:title="60">
<text text-anchor="middle" x="351.29" y="-45.69" font-family="Helvetica,sans-Serif" font-size="10.00" fill="#63b8ff">60</text>
</a>
</g>
</g>
</g>
</svg>
