<?xml version="1.0" encoding="UTF-8" standalone="no"?>
<!DOCTYPE svg PUBLIC "-//W3C//DTD SVG 1.1//EN"
 "http://www.w3.org/Graphics/SVG/1.1/DTD/svg11.dtd">
<!-- Generated by graphviz version 2.43.0 (0)
 -->
<!-- Title: /home/runner/work/cbmc/cbmc/src/solvers/tvpi/inequality_factory.h Pages: 1 -->
<svg width="638pt" height="599pt"
 viewBox="0.00 0.00 637.50 599.00" xmlns="http://www.w3.org/2000/svg" xmlns:xlink="http://www.w3.org/1999/xlink">
<g id="graph0" class="graph" transform="scale(1 1) rotate(0) translate(4 595)">
<title>/home/runner/work/cbmc/cbmc/src/solvers/tvpi/inequality_factory.h</title>
<!-- Node1 -->
<g id="Node000001" class="node">
<title>Node1</title>
<g id="a_Node000001"><a xlink:title=" ">
<polygon fill="#999999" stroke="#666666" points="322.5,-591 184.5,-591 184.5,-550 322.5,-550 322.5,-591"/>
<text text-anchor="start" x="192.5" y="-579" font-family="Helvetica,sans-Serif" font-size="10.00">/home/runner/work/cbmc</text>
<text text-anchor="start" x="192.5" y="-568" font-family="Helvetica,sans-Serif" font-size="10.00">/cbmc/src/solvers/tvpi</text>
<text text-anchor="middle" x="253.5" y="-557" font-family="Helvetica,sans-Serif" font-size="10.00">/inequality_factory.h</text>
</a>
</g>
</g>
<!-- Node2 -->
<g id="Node000002" class="node">
<title>Node2</title>
<g id="a_Node000002"><a xlink:href="constant__inequality_8h.html" target="_top" xlink:title=" ">
<polygon fill="white" stroke="#666666" points="313.5,-459 193.5,-459 193.5,-440 313.5,-440 313.5,-459"/>
<text text-anchor="middle" x="253.5" y="-447" font-family="Helvetica,sans-Serif" font-size="10.00">constant_inequality.h</text>
</a>
</g>
</g>
<!-- Node1&#45;&gt;Node2 -->
<g id="edge1_Node000001_Node000002" class="edge">
<title>Node1&#45;&gt;Node2</title>
<g id="a_edge1_Node000001_Node000002"><a xlink:title=" ">
<path fill="none" stroke="#63b8ff" d="M253.5,-549.85C253.5,-527.48 253.5,-491.19 253.5,-469.21"/>
<polygon fill="#63b8ff" stroke="#63b8ff" points="257,-469.18 253.5,-459.18 250,-469.18 257,-469.18"/>
</a>
</g>
</g>
<!-- Node3 -->
<g id="Node000003" class="node">
<title>Node3</title>
<g id="a_Node000003"><a xlink:href="inequality_8h.html" target="_top" xlink:title=" ">
<polygon fill="white" stroke="#666666" points="282,-404 209,-404 209,-385 282,-385 282,-404"/>
<text text-anchor="middle" x="245.5" y="-392" font-family="Helvetica,sans-Serif" font-size="10.00">inequality.h</text>
</a>
</g>
</g>
<!-- Node1&#45;&gt;Node3 -->
<g id="edge28_Node000001_Node000003" class="edge">
<title>Node1&#45;&gt;Node3</title>
<g id="a_edge28_Node000001_Node000003"><a xlink:title=" ">
<path fill="none" stroke="#63b8ff" d="M277.02,-549.97C304.82,-524.42 344.65,-478.39 322.5,-440 314.08,-425.41 298.85,-415.17 284.15,-408.23"/>
<polygon fill="#63b8ff" stroke="#63b8ff" points="285.21,-404.87 274.64,-404.13 282.43,-411.3 285.21,-404.87"/>
</a>
</g>
</g>
<!-- Node52 -->
<g id="Node000052" class="node">
<title>Node52</title>
<g id="a_Node000052"><a xlink:href="unary__inequality_8h.html" target="_top" xlink:title=" ">
<polygon fill="white" stroke="#666666" points="218.5,-514 112.5,-514 112.5,-495 218.5,-495 218.5,-514"/>
<text text-anchor="middle" x="165.5" y="-502" font-family="Helvetica,sans-Serif" font-size="10.00">unary_inequality.h</text>
</a>
</g>
</g>
<!-- Node1&#45;&gt;Node52 -->
<g id="edge29_Node000001_Node000052" class="edge">
<title>Node1&#45;&gt;Node52</title>
<g id="a_edge29_Node000001_Node000052"><a xlink:title=" ">
<path fill="none" stroke="#63b8ff" d="M226.62,-549.95C213.44,-540.37 197.84,-529.02 185.69,-520.19"/>
<polygon fill="#63b8ff" stroke="#63b8ff" points="187.69,-517.31 177.55,-514.26 183.57,-522.97 187.69,-517.31"/>
</a>
</g>
</g>
<!-- Node2&#45;&gt;Node3 -->
<g id="edge2_Node000002_Node000003" class="edge">
<title>Node2&#45;&gt;Node3</title>
<g id="a_edge2_Node000002_Node000003"><a xlink:title=" ">
<path fill="none" stroke="#63b8ff" d="M252.18,-439.75C251.13,-432.8 249.63,-422.85 248.31,-414.13"/>
<polygon fill="#63b8ff" stroke="#63b8ff" points="251.75,-413.45 246.8,-404.09 244.83,-414.5 251.75,-413.45"/>
</a>
</g>
</g>
<!-- Node4 -->
<g id="Node000004" class="node">
<title>Node4</title>
<g id="a_Node000004"><a xlink:href="mp__arith_8h.html" target="_top" xlink:title=" ">
<polygon fill="white" stroke="#666666" points="343.5,-129 255.5,-129 255.5,-110 343.5,-110 343.5,-129"/>
<text text-anchor="middle" x="299.5" y="-117" font-family="Helvetica,sans-Serif" font-size="10.00">util/mp_arith.h</text>
</a>
</g>
</g>
<!-- Node3&#45;&gt;Node4 -->
<g id="edge3_Node000003_Node000004" class="edge">
<title>Node3&#45;&gt;Node4</title>
<g id="a_edge3_Node000003_Node000004"><a xlink:title=" ">
<path fill="none" stroke="#63b8ff" d="M252.95,-384.94C267.33,-367.5 297.5,-326.08 297.5,-285.5 297.5,-285.5 297.5,-285.5 297.5,-228.5 297.5,-197.18 298.35,-160.77 298.94,-139.23"/>
<polygon fill="#63b8ff" stroke="#63b8ff" points="302.44,-139.27 299.23,-129.18 295.45,-139.07 302.44,-139.27"/>
</a>
</g>
</g>
<!-- Node8 -->
<g id="Node000008" class="node">
<title>Node8</title>
<g id="a_Node000008"><a xlink:href="coordinate_8h.html" target="_top" xlink:title=" ">
<polygon fill="white" stroke="#666666" points="77,-349 0,-349 0,-330 77,-330 77,-349"/>
<text text-anchor="middle" x="38.5" y="-337" font-family="Helvetica,sans-Serif" font-size="10.00">coordinate.h</text>
</a>
</g>
</g>
<!-- Node3&#45;&gt;Node8 -->
<g id="edge7_Node000003_Node000008" class="edge">
<title>Node3&#45;&gt;Node8</title>
<g id="a_edge7_Node000003_Node000008"><a xlink:title=" ">
<path fill="none" stroke="#63b8ff" d="M212.24,-384.98C176.89,-375.93 120.83,-361.58 81.99,-351.64"/>
<polygon fill="#63b8ff" stroke="#63b8ff" points="82.57,-348.17 72.02,-349.08 80.84,-354.95 82.57,-348.17"/>
</a>
</g>
</g>
<!-- Node9 -->
<g id="Node000009" class="node">
<title>Node9</title>
<g id="a_Node000009"><a xlink:href="vertex_8h.html" target="_top" xlink:title=" ">
<polygon fill="white" stroke="#666666" points="486,-349 429,-349 429,-330 486,-330 486,-349"/>
<text text-anchor="middle" x="457.5" y="-337" font-family="Helvetica,sans-Serif" font-size="10.00">vertex.h</text>
</a>
</g>
</g>
<!-- Node3&#45;&gt;Node9 -->
<g id="edge9_Node000003_Node000009" class="edge">
<title>Node3&#45;&gt;Node9</title>
<g id="a_edge9_Node000003_Node000009"><a xlink:title=" ">
<path fill="none" stroke="#63b8ff" d="M279.56,-384.98C317.68,-375.46 379.29,-360.05 419.09,-350.1"/>
<polygon fill="#63b8ff" stroke="#63b8ff" points="420.11,-353.46 428.96,-347.63 418.41,-346.66 420.11,-353.46"/>
</a>
</g>
</g>
<!-- Node49 -->
<g id="Node000049" class="node">
<title>Node49</title>
<g id="a_Node000049"><a xlink:title=" ">
<polygon fill="#e0e0e0" stroke="#999999" points="381.5,-349 325.5,-349 325.5,-330 381.5,-330 381.5,-349"/>
<text text-anchor="middle" x="353.5" y="-337" font-family="Helvetica,sans-Serif" font-size="10.00">assert.h</text>
</a>
</g>
</g>
<!-- Node3&#45;&gt;Node49 -->
<g id="edge24_Node000003_Node000049" class="edge">
<title>Node3&#45;&gt;Node49</title>
<g id="a_edge24_Node000003_Node000049"><a xlink:title=" ">
<path fill="none" stroke="#63b8ff" d="M262.85,-384.98C280.07,-376.54 306.7,-363.47 326.65,-353.68"/>
<polygon fill="#63b8ff" stroke="#63b8ff" points="328.4,-356.72 335.83,-349.17 325.31,-350.43 328.4,-356.72"/>
</a>
</g>
</g>
<!-- Node50 -->
<g id="Node000050" class="node">
<title>Node50</title>
<g id="a_Node000050"><a xlink:title=" ">
<polygon fill="#e0e0e0" stroke="#999999" points="153.5,-349 95.5,-349 95.5,-330 153.5,-330 153.5,-349"/>
<text text-anchor="middle" x="124.5" y="-337" font-family="Helvetica,sans-Serif" font-size="10.00">memory</text>
</a>
</g>
</g>
<!-- Node3&#45;&gt;Node50 -->
<g id="edge25_Node000003_Node000050" class="edge">
<title>Node3&#45;&gt;Node50</title>
<g id="a_edge25_Node000003_Node000050"><a xlink:title=" ">
<path fill="none" stroke="#63b8ff" d="M226.06,-384.98C206.51,-376.42 176.12,-363.11 153.68,-353.28"/>
<polygon fill="#63b8ff" stroke="#63b8ff" points="154.86,-349.98 144.29,-349.17 152.05,-356.39 154.86,-349.98"/>
</a>
</g>
</g>
<!-- Node51 -->
<g id="Node000051" class="node">
<title>Node51</title>
<g id="a_Node000051"><a xlink:title=" ">
<polygon fill="#e0e0e0" stroke="#999999" points="203.5,-349 171.5,-349 171.5,-330 203.5,-330 203.5,-349"/>
<text text-anchor="middle" x="187.5" y="-337" font-family="Helvetica,sans-Serif" font-size="10.00">set</text>
</a>
</g>
</g>
<!-- Node3&#45;&gt;Node51 -->
<g id="edge26_Node000003_Node000051" class="edge">
<title>Node3&#45;&gt;Node51</title>
<g id="a_edge26_Node000003_Node000051"><a xlink:title=" ">
<path fill="none" stroke="#63b8ff" d="M236.18,-384.98C227.69,-377.23 214.94,-365.58 204.62,-356.14"/>
<polygon fill="#63b8ff" stroke="#63b8ff" points="206.73,-353.33 196.99,-349.17 202.01,-358.5 206.73,-353.33"/>
</a>
</g>
</g>
<!-- Node25 -->
<g id="Node000025" class="node">
<title>Node25</title>
<g id="a_Node000025"><a xlink:title=" ">
<polygon fill="#e0e0e0" stroke="#999999" points="269,-349 222,-349 222,-330 269,-330 269,-349"/>
<text text-anchor="middle" x="245.5" y="-337" font-family="Helvetica,sans-Serif" font-size="10.00">vector</text>
</a>
</g>
</g>
<!-- Node3&#45;&gt;Node25 -->
<g id="edge27_Node000003_Node000025" class="edge">
<title>Node3&#45;&gt;Node25</title>
<g id="a_edge27_Node000003_Node000025"><a xlink:title=" ">
<path fill="none" stroke="#63b8ff" d="M245.5,-384.75C245.5,-377.8 245.5,-367.85 245.5,-359.13"/>
<polygon fill="#63b8ff" stroke="#63b8ff" points="249,-359.09 245.5,-349.09 242,-359.09 249,-359.09"/>
</a>
</g>
</g>
<!-- Node5 -->
<g id="Node000005" class="node">
<title>Node5</title>
<g id="a_Node000005"><a xlink:title=" ">
<polygon fill="#e0e0e0" stroke="#999999" points="367.5,-74 319.5,-74 319.5,-55 367.5,-55 367.5,-74"/>
<text text-anchor="middle" x="343.5" y="-62" font-family="Helvetica,sans-Serif" font-size="10.00">iosfwd</text>
</a>
</g>
</g>
<!-- Node4&#45;&gt;Node5 -->
<g id="edge4_Node000004_Node000005" class="edge">
<title>Node4&#45;&gt;Node5</title>
<g id="a_edge4_Node000004_Node000005"><a xlink:title=" ">
<path fill="none" stroke="#63b8ff" d="M306.77,-109.75C313.04,-102.18 322.29,-91.05 329.93,-81.84"/>
<polygon fill="#63b8ff" stroke="#63b8ff" points="332.67,-84.02 336.37,-74.09 327.29,-79.55 332.67,-84.02"/>
</a>
</g>
</g>
<!-- Node6 -->
<g id="Node000006" class="node">
<title>Node6</title>
<g id="a_Node000006"><a xlink:title=" ">
<polygon fill="#e0e0e0" stroke="#999999" points="377.5,-19 333.5,-19 333.5,0 377.5,0 377.5,-19"/>
<text text-anchor="middle" x="355.5" y="-7" font-family="Helvetica,sans-Serif" font-size="10.00">string</text>
</a>
</g>
</g>
<!-- Node4&#45;&gt;Node6 -->
<g id="edge5_Node000004_Node000006" class="edge">
<title>Node4&#45;&gt;Node6</title>
<g id="a_edge5_Node000004_Node000006"><a xlink:title=" ">
<path fill="none" stroke="#63b8ff" d="M299.37,-109.75C299.53,-96.99 301.18,-72.85 310.5,-55 316.42,-43.67 326.26,-33.44 335.23,-25.66"/>
<polygon fill="#63b8ff" stroke="#63b8ff" points="337.55,-28.27 343.08,-19.24 333.12,-22.86 337.55,-28.27"/>
</a>
</g>
</g>
<!-- Node7 -->
<g id="Node000007" class="node">
<title>Node7</title>
<g id="a_Node000007"><a xlink:title=" ">
<polygon fill="#e0e0e0" stroke="#999999" points="263.5,-74 169.5,-74 169.5,-55 263.5,-55 263.5,-74"/>
<text text-anchor="middle" x="216.5" y="-62" font-family="Helvetica,sans-Serif" font-size="10.00">big&#45;int/bigint.hh</text>
</a>
</g>
</g>
<!-- Node4&#45;&gt;Node7 -->
<g id="edge6_Node000004_Node000007" class="edge">
<title>Node4&#45;&gt;Node7</title>
<g id="a_edge6_Node000004_Node000007"><a xlink:title=" ">
<path fill="none" stroke="#63b8ff" d="M286.16,-109.98C273.41,-101.84 253.95,-89.41 238.83,-79.76"/>
<polygon fill="#63b8ff" stroke="#63b8ff" points="240.39,-76.6 230.08,-74.17 236.62,-82.5 240.39,-76.6"/>
</a>
</g>
</g>
<!-- Node8&#45;&gt;Node6 -->
<g id="edge8_Node000008_Node000006" class="edge">
<title>Node8&#45;&gt;Node6</title>
<g id="a_edge8_Node000008_Node000006"><a xlink:title=" ">
<path fill="none" stroke="#63b8ff" d="M45.38,-329.84C58.65,-312.23 86.5,-270.51 86.5,-230.5 86.5,-230.5 86.5,-230.5 86.5,-118.5 86.5,-75.16 121.8,-74.5 160.5,-55 213.73,-28.18 283.25,-17.32 323.28,-13.07"/>
<polygon fill="#63b8ff" stroke="#63b8ff" points="323.67,-16.55 333.28,-12.09 322.98,-9.59 323.67,-16.55"/>
</a>
</g>
</g>
<!-- Node9&#45;&gt;Node6 -->
<g id="edge22_Node000009_Node000006" class="edge">
<title>Node9&#45;&gt;Node6</title>
<g id="a_edge22_Node000009_Node000006"><a xlink:title=" ">
<path fill="none" stroke="#63b8ff" d="M476.37,-330C490.97,-322.5 510.65,-310.24 522.5,-294 539.87,-270.21 541.5,-259.96 541.5,-230.5 541.5,-230.5 541.5,-230.5 541.5,-118.5 541.5,-48.14 440.72,-22.84 387.53,-14.39"/>
<polygon fill="#63b8ff" stroke="#63b8ff" points="387.97,-10.92 377.57,-12.92 386.95,-17.85 387.97,-10.92"/>
</a>
</g>
</g>
<!-- Node10 -->
<g id="Node000010" class="node">
<title>Node10</title>
<g id="a_Node000010"><a xlink:href="rational__tools_8h.html" target="_top" xlink:title=" ">
<polygon fill="white" stroke="#666666" points="513,-294 402,-294 402,-275 513,-275 513,-294"/>
<text text-anchor="middle" x="457.5" y="-282" font-family="Helvetica,sans-Serif" font-size="10.00">util/rational_tools.h</text>
</a>
</g>
</g>
<!-- Node9&#45;&gt;Node10 -->
<g id="edge10_Node000009_Node000010" class="edge">
<title>Node9&#45;&gt;Node10</title>
<g id="a_edge10_Node000009_Node000010"><a xlink:title=" ">
<path fill="none" stroke="#63b8ff" d="M457.5,-329.75C457.5,-322.8 457.5,-312.85 457.5,-304.13"/>
<polygon fill="#63b8ff" stroke="#63b8ff" points="461,-304.09 457.5,-294.09 454,-304.09 461,-304.09"/>
</a>
</g>
</g>
<!-- Node47 -->
<g id="Node000047" class="node">
<title>Node47</title>
<g id="a_Node000047"><a xlink:href="rational_8h.html" target="_top" xlink:title=" ">
<polygon fill="white" stroke="#666666" points="407.5,-239 325.5,-239 325.5,-220 407.5,-220 407.5,-239"/>
<text text-anchor="middle" x="366.5" y="-227" font-family="Helvetica,sans-Serif" font-size="10.00">util/rational.h</text>
</a>
</g>
</g>
<!-- Node9&#45;&gt;Node47 -->
<g id="edge20_Node000009_Node000047" class="edge">
<title>Node9&#45;&gt;Node47</title>
<g id="a_edge20_Node000009_Node000047"><a xlink:title=" ">
<path fill="none" stroke="#63b8ff" d="M439.97,-329.88C425.81,-322.15 406.22,-309.65 393.5,-294 382.65,-280.65 375.47,-262.3 371.27,-248.75"/>
<polygon fill="#63b8ff" stroke="#63b8ff" points="374.63,-247.77 368.52,-239.11 367.89,-249.69 374.63,-247.77"/>
</a>
</g>
</g>
<!-- Node48 -->
<g id="Node000048" class="node">
<title>Node48</title>
<g id="a_Node000048"><a xlink:title=" ">
<polygon fill="#e0e0e0" stroke="#999999" points="629.5,-294 569.5,-294 569.5,-275 629.5,-275 629.5,-294"/>
<text text-anchor="middle" x="599.5" y="-282" font-family="Helvetica,sans-Serif" font-size="10.00">iostream</text>
</a>
</g>
</g>
<!-- Node9&#45;&gt;Node48 -->
<g id="edge23_Node000009_Node000048" class="edge">
<title>Node9&#45;&gt;Node48</title>
<g id="a_edge23_Node000009_Node000048"><a xlink:title=" ">
<path fill="none" stroke="#63b8ff" d="M480.31,-329.98C503.67,-321.27 540.2,-307.63 566.67,-297.75"/>
<polygon fill="#63b8ff" stroke="#63b8ff" points="568.13,-300.95 576.27,-294.17 565.68,-294.39 568.13,-300.95"/>
</a>
</g>
</g>
<!-- Node11 -->
<g id="Node000011" class="node">
<title>Node11</title>
<g id="a_Node000011"><a xlink:href="std__expr_8h.html" target="_top" xlink:title="API to expression classes.">
<polygon fill="white" stroke="#666666" points="493,-239 426,-239 426,-220 493,-220 493,-239"/>
<text text-anchor="middle" x="459.5" y="-227" font-family="Helvetica,sans-Serif" font-size="10.00">std_expr.h</text>
</a>
</g>
</g>
<!-- Node10&#45;&gt;Node11 -->
<g id="edge11_Node000010_Node000011" class="edge">
<title>Node10&#45;&gt;Node11</title>
<g id="a_edge11_Node000010_Node000011"><a xlink:title=" ">
<path fill="none" stroke="#63b8ff" d="M457.83,-274.75C458.09,-267.8 458.47,-257.85 458.8,-249.13"/>
<polygon fill="#63b8ff" stroke="#63b8ff" points="462.3,-249.21 459.18,-239.09 455.3,-248.95 462.3,-249.21"/>
</a>
</g>
</g>
<!-- Node12 -->
<g id="Node000012" class="node">
<title>Node12</title>
<g id="a_Node000012"><a xlink:href="expr__cast_8h.html" target="_top" xlink:title="Templated functions to cast to specific exprt&#45;derived classes.">
<polygon fill="#fff0f0" stroke="red" points="513,-129 440,-129 440,-110 513,-110 513,-129"/>
<text text-anchor="middle" x="476.5" y="-117" font-family="Helvetica,sans-Serif" font-size="10.00">expr_cast.h</text>
</a>
</g>
</g>
<!-- Node11&#45;&gt;Node12 -->
<g id="edge12_Node000011_Node000012" class="edge">
<title>Node11&#45;&gt;Node12</title>
<g id="a_edge12_Node000011_Node000012"><a xlink:title=" ">
<path fill="none" stroke="#63b8ff" d="M466.13,-219.88C472.26,-211.32 480.96,-197.54 484.5,-184 488.37,-169.2 485.77,-151.95 482.53,-139.17"/>
<polygon fill="#63b8ff" stroke="#63b8ff" points="485.81,-137.9 479.67,-129.26 479.08,-139.84 485.81,-137.9"/>
</a>
</g>
</g>
<!-- Node16 -->
<g id="Node000016" class="node">
<title>Node16</title>
<g id="a_Node000016"><a xlink:href="src_2util_2invariant_8h.html" target="_top" xlink:title=" ">
<polygon fill="#fff0f0" stroke="red" points="455,-74 386,-74 386,-55 455,-55 455,-74"/>
<text text-anchor="middle" x="420.5" y="-62" font-family="Helvetica,sans-Serif" font-size="10.00">invariant.h</text>
</a>
</g>
</g>
<!-- Node11&#45;&gt;Node16 -->
<g id="edge15_Node000011_Node000016" class="edge">
<title>Node11&#45;&gt;Node16</title>
<g id="a_edge15_Node000011_Node000016"><a xlink:title=" ">
<path fill="none" stroke="#63b8ff" d="M436.72,-219.89C421.47,-212.79 402.58,-201.08 393.5,-184 375.91,-150.93 395.7,-106.73 409.49,-82.75"/>
<polygon fill="#63b8ff" stroke="#63b8ff" points="412.56,-84.44 414.73,-74.07 406.57,-80.82 412.56,-84.44"/>
</a>
</g>
</g>
<!-- Node46 -->
<g id="Node000046" class="node">
<title>Node46</title>
<g id="a_Node000046"><a xlink:href="std__types_8h.html" target="_top" xlink:title="Pre&#45;defined types.">
<polygon fill="#fff0f0" stroke="red" points="475,-184 402,-184 402,-165 475,-165 475,-184"/>
<text text-anchor="middle" x="438.5" y="-172" font-family="Helvetica,sans-Serif" font-size="10.00">std_types.h</text>
</a>
</g>
</g>
<!-- Node11&#45;&gt;Node46 -->
<g id="edge16_Node000011_Node000046" class="edge">
<title>Node11&#45;&gt;Node46</title>
<g id="a_edge16_Node000011_Node000046"><a xlink:title=" ">
<path fill="none" stroke="#63b8ff" d="M456.03,-219.75C453.22,-212.65 449.16,-202.4 445.65,-193.56"/>
<polygon fill="#63b8ff" stroke="#63b8ff" points="448.84,-192.1 441.9,-184.09 442.33,-194.68 448.84,-192.1"/>
</a>
</g>
</g>
<!-- Node12&#45;&gt;Node16 -->
<g id="edge13_Node000012_Node000016" class="edge">
<title>Node12&#45;&gt;Node16</title>
<g id="a_edge13_Node000012_Node000016"><a xlink:title=" ">
<path fill="none" stroke="#63b8ff" d="M467.5,-109.98C459.31,-102.23 446.99,-90.58 437.03,-81.14"/>
<polygon fill="#63b8ff" stroke="#63b8ff" points="439.33,-78.5 429.66,-74.17 434.52,-83.59 439.33,-78.5"/>
</a>
</g>
</g>
<!-- Node16&#45;&gt;Node6 -->
<g id="edge14_Node000016_Node000006" class="edge">
<title>Node16&#45;&gt;Node6</title>
<g id="a_edge14_Node000016_Node000006"><a xlink:title=" ">
<path fill="none" stroke="#63b8ff" d="M410.06,-54.98C400.35,-47.07 385.68,-35.11 374,-25.58"/>
<polygon fill="#63b8ff" stroke="#63b8ff" points="376.1,-22.78 366.13,-19.17 371.67,-28.2 376.1,-22.78"/>
</a>
</g>
</g>
<!-- Node46&#45;&gt;Node4 -->
<g id="edge19_Node000046_Node000004" class="edge">
<title>Node46&#45;&gt;Node4</title>
<g id="a_edge19_Node000046_Node000004"><a xlink:title=" ">
<path fill="none" stroke="#63b8ff" d="M416.17,-164.98C393.3,-156.27 357.54,-142.63 331.64,-132.75"/>
<polygon fill="#63b8ff" stroke="#63b8ff" points="332.83,-129.46 322.24,-129.17 330.34,-136 332.83,-129.46"/>
</a>
</g>
</g>
<!-- Node46&#45;&gt;Node12 -->
<g id="edge17_Node000046_Node000012" class="edge">
<title>Node46&#45;&gt;Node12</title>
<g id="a_edge17_Node000046_Node000012"><a xlink:title=" ">
<path fill="none" stroke="#63b8ff" d="M444.77,-164.75C450.09,-157.34 457.86,-146.5 464.38,-137.41"/>
<polygon fill="#63b8ff" stroke="#63b8ff" points="467.36,-139.26 470.34,-129.09 461.67,-135.18 467.36,-139.26"/>
</a>
</g>
</g>
<!-- Node46&#45;&gt;Node16 -->
<g id="edge18_Node000046_Node000016" class="edge">
<title>Node46&#45;&gt;Node16</title>
<g id="a_edge18_Node000046_Node000016"><a xlink:title=" ">
<path fill="none" stroke="#63b8ff" d="M437.03,-164.66C434.11,-147.17 427.55,-107.8 423.63,-84.27"/>
<polygon fill="#63b8ff" stroke="#63b8ff" points="427.04,-83.45 421.94,-74.16 420.13,-84.6 427.04,-83.45"/>
</a>
</g>
</g>
<!-- Node47&#45;&gt;Node4 -->
<g id="edge21_Node000047_Node000004" class="edge">
<title>Node47&#45;&gt;Node4</title>
<g id="a_edge21_Node000047_Node000004"><a xlink:title=" ">
<path fill="none" stroke="#63b8ff" d="M361.02,-219.66C349.92,-201.77 324.63,-161 310.17,-137.69"/>
<polygon fill="#63b8ff" stroke="#63b8ff" points="313.12,-135.81 304.87,-129.16 307.17,-139.5 313.12,-135.81"/>
</a>
</g>
</g>
<!-- Node52&#45;&gt;Node3 -->
<g id="edge30_Node000052_Node000003" class="edge">
<title>Node52&#45;&gt;Node3</title>
<g id="a_edge30_Node000052_Node000003"><a xlink:title=" ">
<path fill="none" stroke="#63b8ff" d="M166.31,-494.94C167.9,-481.98 172.41,-457.1 184.5,-440 193.43,-427.38 207.08,-416.94 219.2,-409.36"/>
<polygon fill="#63b8ff" stroke="#63b8ff" points="221.24,-412.22 228.07,-404.12 217.68,-406.19 221.24,-412.22"/>
</a>
</g>
</g>
<!-- Node53 -->
<g id="Node000053" class="node">
<title>Node53</title>
<g id="a_Node000053"><a xlink:href="dyadic__inequality_8h.html" target="_top" xlink:title=" ">
<polygon fill="white" stroke="#666666" points="137.5,-459 27.5,-459 27.5,-440 137.5,-440 137.5,-459"/>
<text text-anchor="middle" x="82.5" y="-447" font-family="Helvetica,sans-Serif" font-size="10.00">dyadic_inequality.h</text>
</a>
</g>
</g>
<!-- Node52&#45;&gt;Node53 -->
<g id="edge31_Node000052_Node000053" class="edge">
<title>Node52&#45;&gt;Node53</title>
<g id="a_edge31_Node000052_Node000053"><a xlink:title=" ">
<path fill="none" stroke="#63b8ff" d="M152.16,-494.98C139.41,-486.84 119.95,-474.41 104.83,-464.76"/>
<polygon fill="#63b8ff" stroke="#63b8ff" points="106.39,-461.6 96.08,-459.17 102.62,-467.5 106.39,-461.6"/>
</a>
</g>
</g>
<!-- Node53&#45;&gt;Node3 -->
<g id="edge34_Node000053_Node000003" class="edge">
<title>Node53&#45;&gt;Node3</title>
<g id="a_edge34_Node000053_Node000003"><a xlink:title=" ">
<path fill="none" stroke="#63b8ff" d="M108.69,-439.98C135.94,-431.13 178.8,-417.19 209.28,-407.28"/>
<polygon fill="#63b8ff" stroke="#63b8ff" points="210.68,-410.5 219.11,-404.08 208.51,-403.85 210.68,-410.5"/>
</a>
</g>
</g>
<!-- Node53&#45;&gt;Node8 -->
<g id="edge33_Node000053_Node000008" class="edge">
<title>Node53&#45;&gt;Node8</title>
<g id="a_edge33_Node000053_Node000008"><a xlink:title=" ">
<path fill="none" stroke="#63b8ff" d="M76.93,-439.93C71.42,-431.17 63.04,-417.05 57.5,-404 51.31,-389.42 46.28,-372.15 42.96,-359.31"/>
<polygon fill="#63b8ff" stroke="#63b8ff" points="46.29,-358.21 40.49,-349.34 39.5,-359.89 46.29,-358.21"/>
</a>
</g>
</g>
<!-- Node54 -->
<g id="Node000054" class="node">
<title>Node54</title>
<g id="a_Node000054"><a xlink:title=" ">
<polygon fill="#e0e0e0" stroke="#999999" points="114,-404 67,-404 67,-385 114,-385 114,-404"/>
<text text-anchor="middle" x="90.5" y="-392" font-family="Helvetica,sans-Serif" font-size="10.00">cmath</text>
</a>
</g>
</g>
<!-- Node53&#45;&gt;Node54 -->
<g id="edge32_Node000053_Node000054" class="edge">
<title>Node53&#45;&gt;Node54</title>
<g id="a_edge32_Node000053_Node000054"><a xlink:title=" ">
<path fill="none" stroke="#63b8ff" d="M83.82,-439.75C84.87,-432.8 86.37,-422.85 87.69,-414.13"/>
<polygon fill="#63b8ff" stroke="#63b8ff" points="91.17,-414.5 89.2,-404.09 84.25,-413.45 91.17,-414.5"/>
</a>
</g>
</g>
</g>
</svg>
