<?xml version="1.0" encoding="UTF-8" standalone="no"?>
<!DOCTYPE svg PUBLIC "-//W3C//DTD SVG 1.1//EN"
 "http://www.w3.org/Graphics/SVG/1.1/DTD/svg11.dtd">
<!-- Generated by graphviz version 2.43.0 (0)
 -->
<!-- Title: /home/runner/work/cbmc/cbmc/src/solvers/tvpi/parser.h Pages: 1 -->
<svg width="692pt" height="203pt"
 viewBox="0.00 0.00 692.00 203.00" xmlns="http://www.w3.org/2000/svg" xmlns:xlink="http://www.w3.org/1999/xlink">
<g id="graph0" class="graph" transform="scale(1 1) rotate(0) translate(4 199)">
<title>/home/runner/work/cbmc/cbmc/src/solvers/tvpi/parser.h</title>
<!-- Node1 -->
<g id="Node000001" class="node">
<title>Node1</title>
<g id="a_Node000001"><a xlink:title=" ">
<polygon fill="#999999" stroke="#666666" points="450,-195 312,-195 312,-154 450,-154 450,-195"/>
<text text-anchor="start" x="320" y="-183" font-family="Helvetica,sans-Serif" font-size="10.00">/home/runner/work/cbmc</text>
<text text-anchor="start" x="320" y="-172" font-family="Helvetica,sans-Serif" font-size="10.00">/cbmc/src/solvers/tvpi</text>
<text text-anchor="middle" x="381" y="-161" font-family="Helvetica,sans-Serif" font-size="10.00">/parser.h</text>
</a>
</g>
</g>
<!-- Node2 -->
<g id="Node000002" class="node">
<title>Node2</title>
<g id="a_Node000002"><a xlink:href="complete_8cpp.html" target="_top" xlink:title=" ">
<polygon fill="white" stroke="#666666" points="216,-118 78,-118 78,-77 216,-77 216,-118"/>
<text text-anchor="start" x="86" y="-106" font-family="Helvetica,sans-Serif" font-size="10.00">/home/runner/work/cbmc</text>
<text text-anchor="start" x="86" y="-95" font-family="Helvetica,sans-Serif" font-size="10.00">/cbmc/src/solvers/tvpi</text>
<text text-anchor="middle" x="147" y="-84" font-family="Helvetica,sans-Serif" font-size="10.00">/complete.cpp</text>
</a>
</g>
</g>
<!-- Node1&#45;&gt;Node2 -->
<g id="edge1_Node000001_Node000002" class="edge">
<title>Node1&#45;&gt;Node2</title>
<g id="a_edge1_Node000001_Node000002"><a xlink:title=" ">
<path fill="none" stroke="#63b8ff" d="M310.21,-150.81C277.6,-140.36 239.28,-128.08 207.97,-118.04"/>
<polygon fill="#63b8ff" stroke="#63b8ff" points="309.54,-154.27 320.13,-153.99 311.68,-147.61 309.54,-154.27"/>
</a>
</g>
</g>
<!-- Node3 -->
<g id="Node000003" class="node">
<title>Node3</title>
<g id="a_Node000003"><a xlink:href="join_8h.html" target="_top" xlink:title=" ">
<polygon fill="white" stroke="#666666" points="372,-118 234,-118 234,-77 372,-77 372,-118"/>
<text text-anchor="start" x="242" y="-106" font-family="Helvetica,sans-Serif" font-size="10.00">/home/runner/work/cbmc</text>
<text text-anchor="start" x="242" y="-95" font-family="Helvetica,sans-Serif" font-size="10.00">/cbmc/src/solvers/tvpi</text>
<text text-anchor="middle" x="303" y="-84" font-family="Helvetica,sans-Serif" font-size="10.00">/join.h</text>
</a>
</g>
</g>
<!-- Node1&#45;&gt;Node3 -->
<g id="edge2_Node000001_Node000003" class="edge">
<title>Node1&#45;&gt;Node3</title>
<g id="a_edge2_Node000001_Node000003"><a xlink:title=" ">
<path fill="none" stroke="#63b8ff" d="M353.22,-146.79C343.37,-137.32 332.47,-126.84 323.36,-118.07"/>
<polygon fill="#63b8ff" stroke="#63b8ff" points="350.87,-149.39 360.51,-153.79 355.72,-144.34 350.87,-149.39"/>
</a>
</g>
</g>
<!-- Node8 -->
<g id="Node000008" class="node">
<title>Node8</title>
<g id="a_Node000008"><a xlink:href="solvers_2tvpi_2parser_8cpp.html" target="_top" xlink:title=" ">
<polygon fill="white" stroke="#666666" points="528,-118 390,-118 390,-77 528,-77 528,-118"/>
<text text-anchor="start" x="398" y="-106" font-family="Helvetica,sans-Serif" font-size="10.00">/home/runner/work/cbmc</text>
<text text-anchor="start" x="398" y="-95" font-family="Helvetica,sans-Serif" font-size="10.00">/cbmc/src/solvers/tvpi</text>
<text text-anchor="middle" x="459" y="-84" font-family="Helvetica,sans-Serif" font-size="10.00">/parser.cpp</text>
</a>
</g>
</g>
<!-- Node1&#45;&gt;Node8 -->
<g id="edge7_Node000001_Node000008" class="edge">
<title>Node1&#45;&gt;Node8</title>
<g id="a_edge7_Node000001_Node000008"><a xlink:title=" ">
<path fill="none" stroke="#63b8ff" d="M408.78,-146.79C418.63,-137.32 429.53,-126.84 438.64,-118.07"/>
<polygon fill="#63b8ff" stroke="#63b8ff" points="406.28,-144.34 401.49,-153.79 411.13,-149.39 406.28,-144.34"/>
</a>
</g>
</g>
<!-- Node9 -->
<g id="Node000009" class="node">
<title>Node9</title>
<g id="a_Node000009"><a xlink:href="smt__printer_8cpp.html" target="_top" xlink:title=" ">
<polygon fill="white" stroke="#666666" points="684,-118 546,-118 546,-77 684,-77 684,-118"/>
<text text-anchor="start" x="554" y="-106" font-family="Helvetica,sans-Serif" font-size="10.00">/home/runner/work/cbmc</text>
<text text-anchor="start" x="554" y="-95" font-family="Helvetica,sans-Serif" font-size="10.00">/cbmc/src/solvers/tvpi</text>
<text text-anchor="middle" x="615" y="-84" font-family="Helvetica,sans-Serif" font-size="10.00">/smt_printer.cpp</text>
</a>
</g>
</g>
<!-- Node1&#45;&gt;Node9 -->
<g id="edge8_Node000001_Node000009" class="edge">
<title>Node1&#45;&gt;Node9</title>
<g id="a_edge8_Node000001_Node000009"><a xlink:title=" ">
<path fill="none" stroke="#63b8ff" d="M451.79,-150.81C484.4,-140.36 522.72,-128.08 554.03,-118.04"/>
<polygon fill="#63b8ff" stroke="#63b8ff" points="450.32,-147.61 441.87,-153.99 452.46,-154.27 450.32,-147.61"/>
</a>
</g>
</g>
<!-- Node4 -->
<g id="Node000004" class="node">
<title>Node4</title>
<g id="a_Node000004"><a xlink:href="tvpi__domaint_8cpp.html" target="_top" xlink:title=" ">
<polygon fill="white" stroke="#666666" points="138,-41 0,-41 0,0 138,0 138,-41"/>
<text text-anchor="start" x="8" y="-29" font-family="Helvetica,sans-Serif" font-size="10.00">/home/runner/work/cbmc</text>
<text text-anchor="start" x="8" y="-18" font-family="Helvetica,sans-Serif" font-size="10.00">/cbmc/src/analyses/tvpi</text>
<text text-anchor="middle" x="69" y="-7" font-family="Helvetica,sans-Serif" font-size="10.00">/tvpi_domaint.cpp</text>
</a>
</g>
</g>
<!-- Node3&#45;&gt;Node4 -->
<g id="edge3_Node000003_Node000004" class="edge">
<title>Node3&#45;&gt;Node4</title>
<g id="a_edge3_Node000003_Node000004"><a xlink:title=" ">
<path fill="none" stroke="#63b8ff" d="M232.21,-73.81C199.6,-63.36 161.28,-51.08 129.97,-41.04"/>
<polygon fill="#63b8ff" stroke="#63b8ff" points="231.54,-77.27 242.13,-76.99 233.68,-70.61 231.54,-77.27"/>
</a>
</g>
</g>
<!-- Node5 -->
<g id="Node000005" class="node">
<title>Node5</title>
<g id="a_Node000005"><a xlink:href="inequality_8cpp.html" target="_top" xlink:title=" ">
<polygon fill="white" stroke="#666666" points="294,-41 156,-41 156,0 294,0 294,-41"/>
<text text-anchor="start" x="164" y="-29" font-family="Helvetica,sans-Serif" font-size="10.00">/home/runner/work/cbmc</text>
<text text-anchor="start" x="164" y="-18" font-family="Helvetica,sans-Serif" font-size="10.00">/cbmc/src/solvers/tvpi</text>
<text text-anchor="middle" x="225" y="-7" font-family="Helvetica,sans-Serif" font-size="10.00">/inequality.cpp</text>
</a>
</g>
</g>
<!-- Node3&#45;&gt;Node5 -->
<g id="edge4_Node000003_Node000005" class="edge">
<title>Node3&#45;&gt;Node5</title>
<g id="a_edge4_Node000003_Node000005"><a xlink:title=" ">
<path fill="none" stroke="#63b8ff" d="M275.22,-69.79C265.37,-60.32 254.47,-49.84 245.36,-41.07"/>
<polygon fill="#63b8ff" stroke="#63b8ff" points="272.87,-72.39 282.51,-76.79 277.72,-67.34 272.87,-72.39"/>
</a>
</g>
</g>
<!-- Node6 -->
<g id="Node000006" class="node">
<title>Node6</title>
<g id="a_Node000006"><a xlink:href="join_8cpp.html" target="_top" xlink:title=" ">
<polygon fill="white" stroke="#666666" points="450,-41 312,-41 312,0 450,0 450,-41"/>
<text text-anchor="start" x="320" y="-29" font-family="Helvetica,sans-Serif" font-size="10.00">/home/runner/work/cbmc</text>
<text text-anchor="start" x="320" y="-18" font-family="Helvetica,sans-Serif" font-size="10.00">/cbmc/src/solvers/tvpi</text>
<text text-anchor="middle" x="381" y="-7" font-family="Helvetica,sans-Serif" font-size="10.00">/join.cpp</text>
</a>
</g>
</g>
<!-- Node3&#45;&gt;Node6 -->
<g id="edge5_Node000003_Node000006" class="edge">
<title>Node3&#45;&gt;Node6</title>
<g id="a_edge5_Node000003_Node000006"><a xlink:title=" ">
<path fill="none" stroke="#63b8ff" d="M330.78,-69.79C340.63,-60.32 351.53,-49.84 360.64,-41.07"/>
<polygon fill="#63b8ff" stroke="#63b8ff" points="328.28,-67.34 323.49,-76.79 333.13,-72.39 328.28,-67.34"/>
</a>
</g>
</g>
<!-- Node7 -->
<g id="Node000007" class="node">
<title>Node7</title>
<g id="a_Node000007"><a xlink:href="tvpi__math_8cpp.html" target="_top" xlink:title=" ">
<polygon fill="white" stroke="#666666" points="606,-41 468,-41 468,0 606,0 606,-41"/>
<text text-anchor="start" x="476" y="-29" font-family="Helvetica,sans-Serif" font-size="10.00">/home/runner/work/cbmc</text>
<text text-anchor="start" x="476" y="-18" font-family="Helvetica,sans-Serif" font-size="10.00">/cbmc/src/solvers/tvpi</text>
<text text-anchor="middle" x="537" y="-7" font-family="Helvetica,sans-Serif" font-size="10.00">/tvpi_math.cpp</text>
</a>
</g>
</g>
<!-- Node3&#45;&gt;Node7 -->
<g id="edge6_Node000003_Node000007" class="edge">
<title>Node3&#45;&gt;Node7</title>
<g id="a_edge6_Node000003_Node000007"><a xlink:title=" ">
<path fill="none" stroke="#63b8ff" d="M373.79,-73.81C406.4,-63.36 444.72,-51.08 476.03,-41.04"/>
<polygon fill="#63b8ff" stroke="#63b8ff" points="372.32,-70.61 363.87,-76.99 374.46,-77.27 372.32,-70.61"/>
</a>
</g>
</g>
</g>
</svg>
