<?xml version="1.0" encoding="UTF-8" standalone="no"?>
<!DOCTYPE svg PUBLIC "-//W3C//DTD SVG 1.1//EN"
 "http://www.w3.org/Graphics/SVG/1.1/DTD/svg11.dtd">
<!-- Generated by graphviz version 2.43.0 (0)
 -->
<!-- Title: /home/runner/work/cbmc/cbmc/src/analyses/tvpi/tvpi_logt.h Pages: 1 -->
<svg width="770pt" height="126pt"
 viewBox="0.00 0.00 770.00 126.00" xmlns="http://www.w3.org/2000/svg" xmlns:xlink="http://www.w3.org/1999/xlink">
<g id="graph0" class="graph" transform="scale(1 1) rotate(0) translate(4 122)">
<title>/home/runner/work/cbmc/cbmc/src/analyses/tvpi/tvpi_logt.h</title>
<!-- Node1 -->
<g id="Node000001" class="node">
<title>Node1</title>
<g id="a_Node000001"><a xlink:title=" ">
<polygon fill="#999999" stroke="#666666" points="450,-118 312,-118 312,-77 450,-77 450,-118"/>
<text text-anchor="start" x="320" y="-106" font-family="Helvetica,sans-Serif" font-size="10.00">/home/runner/work/cbmc</text>
<text text-anchor="start" x="320" y="-95" font-family="Helvetica,sans-Serif" font-size="10.00">/cbmc/src/analyses/tvpi</text>
<text text-anchor="middle" x="381" y="-84" font-family="Helvetica,sans-Serif" font-size="10.00">/tvpi_logt.h</text>
</a>
</g>
</g>
<!-- Node2 -->
<g id="Node000002" class="node">
<title>Node2</title>
<g id="a_Node000002"><a xlink:href="tvpi__bindingt_8cpp.html" target="_top" xlink:title=" ">
<polygon fill="white" stroke="#666666" points="138,-41 0,-41 0,0 138,0 138,-41"/>
<text text-anchor="start" x="8" y="-29" font-family="Helvetica,sans-Serif" font-size="10.00">/home/runner/work/cbmc</text>
<text text-anchor="start" x="8" y="-18" font-family="Helvetica,sans-Serif" font-size="10.00">/cbmc/src/analyses/tvpi</text>
<text text-anchor="middle" x="69" y="-7" font-family="Helvetica,sans-Serif" font-size="10.00">/tvpi_bindingt.cpp</text>
</a>
</g>
</g>
<!-- Node1&#45;&gt;Node2 -->
<g id="edge1_Node000001_Node000002" class="edge">
<title>Node1&#45;&gt;Node2</title>
<g id="a_edge1_Node000001_Node000002"><a xlink:title=" ">
<path fill="none" stroke="#63b8ff" d="M302.06,-78.03C256.67,-67.34 198.59,-53.57 147,-41 144.15,-40.31 141.25,-39.6 138.31,-38.87"/>
<polygon fill="#63b8ff" stroke="#63b8ff" points="301.3,-81.44 311.83,-80.33 302.9,-74.63 301.3,-81.44"/>
</a>
</g>
</g>
<!-- Node3 -->
<g id="Node000003" class="node">
<title>Node3</title>
<g id="a_Node000003"><a xlink:href="tvpi__domaint_8cpp.html" target="_top" xlink:title=" ">
<polygon fill="white" stroke="#666666" points="294,-41 156,-41 156,0 294,0 294,-41"/>
<text text-anchor="start" x="164" y="-29" font-family="Helvetica,sans-Serif" font-size="10.00">/home/runner/work/cbmc</text>
<text text-anchor="start" x="164" y="-18" font-family="Helvetica,sans-Serif" font-size="10.00">/cbmc/src/analyses/tvpi</text>
<text text-anchor="middle" x="225" y="-7" font-family="Helvetica,sans-Serif" font-size="10.00">/tvpi_domaint.cpp</text>
</a>
</g>
</g>
<!-- Node1&#45;&gt;Node3 -->
<g id="edge2_Node000001_Node000003" class="edge">
<title>Node1&#45;&gt;Node3</title>
<g id="a_edge2_Node000001_Node000003"><a xlink:title=" ">
<path fill="none" stroke="#63b8ff" d="M331.26,-72.59C310.09,-62.41 285.71,-50.69 265.65,-41.04"/>
<polygon fill="#63b8ff" stroke="#63b8ff" points="329.89,-75.81 340.42,-76.99 332.92,-69.5 329.89,-75.81"/>
</a>
</g>
</g>
<!-- Node4 -->
<g id="Node000004" class="node">
<title>Node4</title>
<g id="a_Node000004"><a xlink:href="complete_8cpp.html" target="_top" xlink:title=" ">
<polygon fill="white" stroke="#666666" points="450,-41 312,-41 312,0 450,0 450,-41"/>
<text text-anchor="start" x="320" y="-29" font-family="Helvetica,sans-Serif" font-size="10.00">/home/runner/work/cbmc</text>
<text text-anchor="start" x="320" y="-18" font-family="Helvetica,sans-Serif" font-size="10.00">/cbmc/src/solvers/tvpi</text>
<text text-anchor="middle" x="381" y="-7" font-family="Helvetica,sans-Serif" font-size="10.00">/complete.cpp</text>
</a>
</g>
</g>
<!-- Node1&#45;&gt;Node4 -->
<g id="edge3_Node000001_Node000004" class="edge">
<title>Node1&#45;&gt;Node4</title>
<g id="a_edge3_Node000001_Node000004"><a xlink:title=" ">
<path fill="none" stroke="#63b8ff" d="M381,-66.69C381,-58.08 381,-48.9 381,-41.07"/>
<polygon fill="#63b8ff" stroke="#63b8ff" points="377.5,-66.79 381,-76.79 384.5,-66.79 377.5,-66.79"/>
</a>
</g>
</g>
<!-- Node5 -->
<g id="Node000005" class="node">
<title>Node5</title>
<g id="a_Node000005"><a xlink:href="inequality_8cpp.html" target="_top" xlink:title=" ">
<polygon fill="white" stroke="#666666" points="606,-41 468,-41 468,0 606,0 606,-41"/>
<text text-anchor="start" x="476" y="-29" font-family="Helvetica,sans-Serif" font-size="10.00">/home/runner/work/cbmc</text>
<text text-anchor="start" x="476" y="-18" font-family="Helvetica,sans-Serif" font-size="10.00">/cbmc/src/solvers/tvpi</text>
<text text-anchor="middle" x="537" y="-7" font-family="Helvetica,sans-Serif" font-size="10.00">/inequality.cpp</text>
</a>
</g>
</g>
<!-- Node1&#45;&gt;Node5 -->
<g id="edge4_Node000001_Node000005" class="edge">
<title>Node1&#45;&gt;Node5</title>
<g id="a_edge4_Node000001_Node000005"><a xlink:title=" ">
<path fill="none" stroke="#63b8ff" d="M430.74,-72.59C451.91,-62.41 476.29,-50.69 496.35,-41.04"/>
<polygon fill="#63b8ff" stroke="#63b8ff" points="429.08,-69.5 421.58,-76.99 432.11,-75.81 429.08,-69.5"/>
</a>
</g>
</g>
<!-- Node6 -->
<g id="Node000006" class="node">
<title>Node6</title>
<g id="a_Node000006"><a xlink:href="tvpi__systemt_8cpp.html" target="_top" xlink:title=" ">
<polygon fill="white" stroke="#666666" points="762,-41 624,-41 624,0 762,0 762,-41"/>
<text text-anchor="start" x="632" y="-29" font-family="Helvetica,sans-Serif" font-size="10.00">/home/runner/work/cbmc</text>
<text text-anchor="start" x="632" y="-18" font-family="Helvetica,sans-Serif" font-size="10.00">/cbmc/src/solvers/tvpi</text>
<text text-anchor="middle" x="693" y="-7" font-family="Helvetica,sans-Serif" font-size="10.00">/tvpi_systemt.cpp</text>
</a>
</g>
</g>
<!-- Node1&#45;&gt;Node6 -->
<g id="edge5_Node000001_Node000006" class="edge">
<title>Node1&#45;&gt;Node6</title>
<g id="a_edge5_Node000001_Node000006"><a xlink:title=" ">
<path fill="none" stroke="#63b8ff" d="M459.94,-78.03C505.33,-67.34 563.41,-53.57 615,-41 617.85,-40.31 620.75,-39.6 623.69,-38.87"/>
<polygon fill="#63b8ff" stroke="#63b8ff" points="459.1,-74.63 450.17,-80.33 460.7,-81.44 459.1,-74.63"/>
</a>
</g>
</g>
</g>
</svg>
